<?xml version="1.0" encoding="utf-8" standalone="no"?>
<!DOCTYPE svg PUBLIC "-//W3C//DTD SVG 1.1//EN"
  "http://www.w3.org/Graphics/SVG/1.1/DTD/svg11.dtd">
<!-- Created with matplotlib (http://matplotlib.org/) -->
<svg height="576pt" version="1.1" viewBox="0 0 720 576" width="720pt" xmlns="http://www.w3.org/2000/svg" xmlns:xlink="http://www.w3.org/1999/xlink">
 <defs>
  <style type="text/css">
*{stroke-linecap:butt;stroke-linejoin:round;}
  </style>
 </defs>
 <g id="figure_1">
  <g id="patch_1">
   <path d="M 0 576 
L 720 576 
L 720 0 
L 0 0 
z
" style="fill:#ffffff;"/>
  </g>
  <g id="axes_1">
   <g id="patch_2">
    <path d="M 90 270.72 
L 648 270.72 
L 648 69.12 
L 90 69.12 
z
" style="fill:#ffffff;"/>
   </g>
   <g id="matplotlib.axis_1">
    <g id="xtick_1">
     <g id="line2d_1">
      <defs>
       <path d="M 0 0 
L 0 3.5 
" id="m815c78996f" style="stroke:#000000;stroke-width:0.8;"/>
      </defs>
      <g>
       <use style="stroke:#000000;stroke-width:0.8;" x="90" xlink:href="#m815c78996f" y="270.72"/>
      </g>
     </g>
     <g id="text_1">
      <!-- 0.0 -->
      <defs>
       <path d="M 31.78125 66.40625 
Q 24.171875 66.40625 20.328125 58.90625 
Q 16.5 51.421875 16.5 36.375 
Q 16.5 21.390625 20.328125 13.890625 
Q 24.171875 6.390625 31.78125 6.390625 
Q 39.453125 6.390625 43.28125 13.890625 
Q 47.125 21.390625 47.125 36.375 
Q 47.125 51.421875 43.28125 58.90625 
Q 39.453125 66.40625 31.78125 66.40625 
z
M 31.78125 74.21875 
Q 44.046875 74.21875 50.515625 64.515625 
Q 56.984375 54.828125 56.984375 36.375 
Q 56.984375 17.96875 50.515625 8.265625 
Q 44.046875 -1.421875 31.78125 -1.421875 
Q 19.53125 -1.421875 13.0625 8.265625 
Q 6.59375 17.96875 6.59375 36.375 
Q 6.59375 54.828125 13.0625 64.515625 
Q 19.53125 74.21875 31.78125 74.21875 
z
" id="DejaVuSans-30"/>
       <path d="M 10.6875 12.40625 
L 21 12.40625 
L 21 0 
L 10.6875 0 
z
" id="DejaVuSans-2e"/>
      </defs>
      <g transform="translate(82.048438 285.318437)scale(0.1 -0.1)">
       <use xlink:href="#DejaVuSans-30"/>
       <use x="63.623047" xlink:href="#DejaVuSans-2e"/>
       <use x="95.410156" xlink:href="#DejaVuSans-30"/>
      </g>
     </g>
    </g>
    <g id="xtick_2">
     <g id="line2d_2">
      <g>
       <use style="stroke:#000000;stroke-width:0.8;" x="159.75" xlink:href="#m815c78996f" y="270.72"/>
      </g>
     </g>
     <g id="text_2">
      <!-- 2.5 -->
      <defs>
       <path d="M 19.1875 8.296875 
L 53.609375 8.296875 
L 53.609375 0 
L 7.328125 0 
L 7.328125 8.296875 
Q 12.9375 14.109375 22.625 23.890625 
Q 32.328125 33.6875 34.8125 36.53125 
Q 39.546875 41.84375 41.421875 45.53125 
Q 43.3125 49.21875 43.3125 52.78125 
Q 43.3125 58.59375 39.234375 62.25 
Q 35.15625 65.921875 28.609375 65.921875 
Q 23.96875 65.921875 18.8125 64.3125 
Q 13.671875 62.703125 7.8125 59.421875 
L 7.8125 69.390625 
Q 13.765625 71.78125 18.9375 73 
Q 24.125 74.21875 28.421875 74.21875 
Q 39.75 74.21875 46.484375 68.546875 
Q 53.21875 62.890625 53.21875 53.421875 
Q 53.21875 48.921875 51.53125 44.890625 
Q 49.859375 40.875 45.40625 35.40625 
Q 44.1875 33.984375 37.640625 27.21875 
Q 31.109375 20.453125 19.1875 8.296875 
z
" id="DejaVuSans-32"/>
       <path d="M 10.796875 72.90625 
L 49.515625 72.90625 
L 49.515625 64.59375 
L 19.828125 64.59375 
L 19.828125 46.734375 
Q 21.96875 47.46875 24.109375 47.828125 
Q 26.265625 48.1875 28.421875 48.1875 
Q 40.625 48.1875 47.75 41.5 
Q 54.890625 34.8125 54.890625 23.390625 
Q 54.890625 11.625 47.5625 5.09375 
Q 40.234375 -1.421875 26.90625 -1.421875 
Q 22.3125 -1.421875 17.546875 -0.640625 
Q 12.796875 0.140625 7.71875 1.703125 
L 7.71875 11.625 
Q 12.109375 9.234375 16.796875 8.0625 
Q 21.484375 6.890625 26.703125 6.890625 
Q 35.15625 6.890625 40.078125 11.328125 
Q 45.015625 15.765625 45.015625 23.390625 
Q 45.015625 31 40.078125 35.4375 
Q 35.15625 39.890625 26.703125 39.890625 
Q 22.75 39.890625 18.8125 39.015625 
Q 14.890625 38.140625 10.796875 36.28125 
z
" id="DejaVuSans-35"/>
      </defs>
      <g transform="translate(151.798438 285.318437)scale(0.1 -0.1)">
       <use xlink:href="#DejaVuSans-32"/>
       <use x="63.623047" xlink:href="#DejaVuSans-2e"/>
       <use x="95.410156" xlink:href="#DejaVuSans-35"/>
      </g>
     </g>
    </g>
    <g id="xtick_3">
     <g id="line2d_3">
      <g>
       <use style="stroke:#000000;stroke-width:0.8;" x="229.5" xlink:href="#m815c78996f" y="270.72"/>
      </g>
     </g>
     <g id="text_3">
      <!-- 5.0 -->
      <g transform="translate(221.548438 285.318437)scale(0.1 -0.1)">
       <use xlink:href="#DejaVuSans-35"/>
       <use x="63.623047" xlink:href="#DejaVuSans-2e"/>
       <use x="95.410156" xlink:href="#DejaVuSans-30"/>
      </g>
     </g>
    </g>
    <g id="xtick_4">
     <g id="line2d_4">
      <g>
       <use style="stroke:#000000;stroke-width:0.8;" x="299.25" xlink:href="#m815c78996f" y="270.72"/>
      </g>
     </g>
     <g id="text_4">
      <!-- 7.5 -->
      <defs>
       <path d="M 8.203125 72.90625 
L 55.078125 72.90625 
L 55.078125 68.703125 
L 28.609375 0 
L 18.3125 0 
L 43.21875 64.59375 
L 8.203125 64.59375 
z
" id="DejaVuSans-37"/>
      </defs>
      <g transform="translate(291.298437 285.318437)scale(0.1 -0.1)">
       <use xlink:href="#DejaVuSans-37"/>
       <use x="63.623047" xlink:href="#DejaVuSans-2e"/>
       <use x="95.410156" xlink:href="#DejaVuSans-35"/>
      </g>
     </g>
    </g>
    <g id="xtick_5">
     <g id="line2d_5">
      <g>
       <use style="stroke:#000000;stroke-width:0.8;" x="369" xlink:href="#m815c78996f" y="270.72"/>
      </g>
     </g>
     <g id="text_5">
      <!-- 10.0 -->
      <defs>
       <path d="M 12.40625 8.296875 
L 28.515625 8.296875 
L 28.515625 63.921875 
L 10.984375 60.40625 
L 10.984375 69.390625 
L 28.421875 72.90625 
L 38.28125 72.90625 
L 38.28125 8.296875 
L 54.390625 8.296875 
L 54.390625 0 
L 12.40625 0 
z
" id="DejaVuSans-31"/>
      </defs>
      <g transform="translate(357.867188 285.318437)scale(0.1 -0.1)">
       <use xlink:href="#DejaVuSans-31"/>
       <use x="63.623047" xlink:href="#DejaVuSans-30"/>
       <use x="127.246094" xlink:href="#DejaVuSans-2e"/>
       <use x="159.033203" xlink:href="#DejaVuSans-30"/>
      </g>
     </g>
    </g>
    <g id="xtick_6">
     <g id="line2d_6">
      <g>
       <use style="stroke:#000000;stroke-width:0.8;" x="438.75" xlink:href="#m815c78996f" y="270.72"/>
      </g>
     </g>
     <g id="text_6">
      <!-- 12.5 -->
      <g transform="translate(427.617188 285.318437)scale(0.1 -0.1)">
       <use xlink:href="#DejaVuSans-31"/>
       <use x="63.623047" xlink:href="#DejaVuSans-32"/>
       <use x="127.246094" xlink:href="#DejaVuSans-2e"/>
       <use x="159.033203" xlink:href="#DejaVuSans-35"/>
      </g>
     </g>
    </g>
    <g id="xtick_7">
     <g id="line2d_7">
      <g>
       <use style="stroke:#000000;stroke-width:0.8;" x="508.5" xlink:href="#m815c78996f" y="270.72"/>
      </g>
     </g>
     <g id="text_7">
      <!-- 15.0 -->
      <g transform="translate(497.367188 285.318437)scale(0.1 -0.1)">
       <use xlink:href="#DejaVuSans-31"/>
       <use x="63.623047" xlink:href="#DejaVuSans-35"/>
       <use x="127.246094" xlink:href="#DejaVuSans-2e"/>
       <use x="159.033203" xlink:href="#DejaVuSans-30"/>
      </g>
     </g>
    </g>
    <g id="xtick_8">
     <g id="line2d_8">
      <g>
       <use style="stroke:#000000;stroke-width:0.8;" x="578.25" xlink:href="#m815c78996f" y="270.72"/>
      </g>
     </g>
     <g id="text_8">
      <!-- 17.5 -->
      <g transform="translate(567.117188 285.318437)scale(0.1 -0.1)">
       <use xlink:href="#DejaVuSans-31"/>
       <use x="63.623047" xlink:href="#DejaVuSans-37"/>
       <use x="127.246094" xlink:href="#DejaVuSans-2e"/>
       <use x="159.033203" xlink:href="#DejaVuSans-35"/>
      </g>
     </g>
    </g>
    <g id="xtick_9">
     <g id="line2d_9">
      <g>
       <use style="stroke:#000000;stroke-width:0.8;" x="648" xlink:href="#m815c78996f" y="270.72"/>
      </g>
     </g>
     <g id="text_9">
      <!-- 20.0 -->
      <g transform="translate(636.867188 285.318437)scale(0.1 -0.1)">
       <use xlink:href="#DejaVuSans-32"/>
       <use x="63.623047" xlink:href="#DejaVuSans-30"/>
       <use x="127.246094" xlink:href="#DejaVuSans-2e"/>
       <use x="159.033203" xlink:href="#DejaVuSans-30"/>
      </g>
     </g>
    </g>
   </g>
   <g id="matplotlib.axis_2">
    <g id="ytick_1">
     <g id="line2d_10">
      <defs>
       <path d="M 0 0 
L -3.5 0 
" id="mcc1b2cafeb" style="stroke:#000000;stroke-width:0.8;"/>
      </defs>
      <g>
       <use style="stroke:#000000;stroke-width:0.8;" x="90" xlink:href="#mcc1b2cafeb" y="240.377861"/>
      </g>
     </g>
     <g id="text_10">
      <!-- $\mathdefault{10^{2}}$ -->
      <g transform="translate(65.4 244.17708)scale(0.1 -0.1)">
       <use transform="translate(0 0.765625)" xlink:href="#DejaVuSans-31"/>
       <use transform="translate(63.623047 0.765625)" xlink:href="#DejaVuSans-30"/>
       <use transform="translate(128.203125 39.046875)scale(0.7)" xlink:href="#DejaVuSans-32"/>
      </g>
     </g>
    </g>
    <g id="ytick_2">
     <g id="line2d_11">
      <g>
       <use style="stroke:#000000;stroke-width:0.8;" x="90" xlink:href="#mcc1b2cafeb" y="165.804793"/>
      </g>
     </g>
     <g id="text_11">
      <!-- $\mathdefault{10^{3}}$ -->
      <defs>
       <path d="M 40.578125 39.3125 
Q 47.65625 37.796875 51.625 33 
Q 55.609375 28.21875 55.609375 21.1875 
Q 55.609375 10.40625 48.1875 4.484375 
Q 40.765625 -1.421875 27.09375 -1.421875 
Q 22.515625 -1.421875 17.65625 -0.515625 
Q 12.796875 0.390625 7.625 2.203125 
L 7.625 11.71875 
Q 11.71875 9.328125 16.59375 8.109375 
Q 21.484375 6.890625 26.8125 6.890625 
Q 36.078125 6.890625 40.9375 10.546875 
Q 45.796875 14.203125 45.796875 21.1875 
Q 45.796875 27.640625 41.28125 31.265625 
Q 36.765625 34.90625 28.71875 34.90625 
L 20.21875 34.90625 
L 20.21875 43.015625 
L 29.109375 43.015625 
Q 36.375 43.015625 40.234375 45.921875 
Q 44.09375 48.828125 44.09375 54.296875 
Q 44.09375 59.90625 40.109375 62.90625 
Q 36.140625 65.921875 28.71875 65.921875 
Q 24.65625 65.921875 20.015625 65.03125 
Q 15.375 64.15625 9.8125 62.3125 
L 9.8125 71.09375 
Q 15.4375 72.65625 20.34375 73.4375 
Q 25.25 74.21875 29.59375 74.21875 
Q 40.828125 74.21875 47.359375 69.109375 
Q 53.90625 64.015625 53.90625 55.328125 
Q 53.90625 49.265625 50.4375 45.09375 
Q 46.96875 40.921875 40.578125 39.3125 
z
" id="DejaVuSans-33"/>
      </defs>
      <g transform="translate(65.4 169.604011)scale(0.1 -0.1)">
       <use transform="translate(0 0.765625)" xlink:href="#DejaVuSans-31"/>
       <use transform="translate(63.623047 0.765625)" xlink:href="#DejaVuSans-30"/>
       <use transform="translate(128.203125 39.046875)scale(0.7)" xlink:href="#DejaVuSans-33"/>
      </g>
     </g>
    </g>
    <g id="ytick_3">
     <g id="line2d_12">
      <g>
       <use style="stroke:#000000;stroke-width:0.8;" x="90" xlink:href="#mcc1b2cafeb" y="91.231724"/>
      </g>
     </g>
     <g id="text_12">
      <!-- $\mathdefault{10^{4}}$ -->
      <defs>
       <path d="M 37.796875 64.3125 
L 12.890625 25.390625 
L 37.796875 25.390625 
z
M 35.203125 72.90625 
L 47.609375 72.90625 
L 47.609375 25.390625 
L 58.015625 25.390625 
L 58.015625 17.1875 
L 47.609375 17.1875 
L 47.609375 0 
L 37.796875 0 
L 37.796875 17.1875 
L 4.890625 17.1875 
L 4.890625 26.703125 
z
" id="DejaVuSans-34"/>
      </defs>
      <g transform="translate(65.4 95.030943)scale(0.1 -0.1)">
       <use transform="translate(0 0.684375)" xlink:href="#DejaVuSans-31"/>
       <use transform="translate(63.623047 0.684375)" xlink:href="#DejaVuSans-30"/>
       <use transform="translate(128.203125 38.965625)scale(0.7)" xlink:href="#DejaVuSans-34"/>
      </g>
     </g>
    </g>
    <g id="ytick_4">
     <g id="line2d_13">
      <defs>
       <path d="M 0 0 
L -2 0 
" id="m8b69477550" style="stroke:#000000;stroke-width:0.6;"/>
      </defs>
      <g>
       <use style="stroke:#000000;stroke-width:0.6;" x="90" xlink:href="#m8b69477550" y="270.053469"/>
      </g>
     </g>
    </g>
    <g id="ytick_5">
     <g id="line2d_14">
      <g>
       <use style="stroke:#000000;stroke-width:0.6;" x="90" xlink:href="#m8b69477550" y="262.826592"/>
      </g>
     </g>
    </g>
    <g id="ytick_6">
     <g id="line2d_15">
      <g>
       <use style="stroke:#000000;stroke-width:0.6;" x="90" xlink:href="#m8b69477550" y="256.921804"/>
      </g>
     </g>
    </g>
    <g id="ytick_7">
     <g id="line2d_16">
      <g>
       <use style="stroke:#000000;stroke-width:0.6;" x="90" xlink:href="#m8b69477550" y="251.929376"/>
      </g>
     </g>
    </g>
    <g id="ytick_8">
     <g id="line2d_17">
      <g>
       <use style="stroke:#000000;stroke-width:0.6;" x="90" xlink:href="#m8b69477550" y="247.604739"/>
      </g>
     </g>
    </g>
    <g id="ytick_9">
     <g id="line2d_18">
      <g>
       <use style="stroke:#000000;stroke-width:0.6;" x="90" xlink:href="#m8b69477550" y="243.790138"/>
      </g>
     </g>
    </g>
    <g id="ytick_10">
     <g id="line2d_19">
      <g>
       <use style="stroke:#000000;stroke-width:0.6;" x="90" xlink:href="#m8b69477550" y="217.929131"/>
      </g>
     </g>
    </g>
    <g id="ytick_11">
     <g id="line2d_20">
      <g>
       <use style="stroke:#000000;stroke-width:0.6;" x="90" xlink:href="#m8b69477550" y="204.797465"/>
      </g>
     </g>
    </g>
    <g id="ytick_12">
     <g id="line2d_21">
      <g>
       <use style="stroke:#000000;stroke-width:0.6;" x="90" xlink:href="#m8b69477550" y="195.4804"/>
      </g>
     </g>
    </g>
    <g id="ytick_13">
     <g id="line2d_22">
      <g>
       <use style="stroke:#000000;stroke-width:0.6;" x="90" xlink:href="#m8b69477550" y="188.253523"/>
      </g>
     </g>
    </g>
    <g id="ytick_14">
     <g id="line2d_23">
      <g>
       <use style="stroke:#000000;stroke-width:0.6;" x="90" xlink:href="#m8b69477550" y="182.348735"/>
      </g>
     </g>
    </g>
    <g id="ytick_15">
     <g id="line2d_24">
      <g>
       <use style="stroke:#000000;stroke-width:0.6;" x="90" xlink:href="#m8b69477550" y="177.356307"/>
      </g>
     </g>
    </g>
    <g id="ytick_16">
     <g id="line2d_25">
      <g>
       <use style="stroke:#000000;stroke-width:0.6;" x="90" xlink:href="#m8b69477550" y="173.03167"/>
      </g>
     </g>
    </g>
    <g id="ytick_17">
     <g id="line2d_26">
      <g>
       <use style="stroke:#000000;stroke-width:0.6;" x="90" xlink:href="#m8b69477550" y="169.217069"/>
      </g>
     </g>
    </g>
    <g id="ytick_18">
     <g id="line2d_27">
      <g>
       <use style="stroke:#000000;stroke-width:0.6;" x="90" xlink:href="#m8b69477550" y="143.356062"/>
      </g>
     </g>
    </g>
    <g id="ytick_19">
     <g id="line2d_28">
      <g>
       <use style="stroke:#000000;stroke-width:0.6;" x="90" xlink:href="#m8b69477550" y="130.224397"/>
      </g>
     </g>
    </g>
    <g id="ytick_20">
     <g id="line2d_29">
      <g>
       <use style="stroke:#000000;stroke-width:0.6;" x="90" xlink:href="#m8b69477550" y="120.907332"/>
      </g>
     </g>
    </g>
    <g id="ytick_21">
     <g id="line2d_30">
      <g>
       <use style="stroke:#000000;stroke-width:0.6;" x="90" xlink:href="#m8b69477550" y="113.680454"/>
      </g>
     </g>
    </g>
    <g id="ytick_22">
     <g id="line2d_31">
      <g>
       <use style="stroke:#000000;stroke-width:0.6;" x="90" xlink:href="#m8b69477550" y="107.775666"/>
      </g>
     </g>
    </g>
    <g id="ytick_23">
     <g id="line2d_32">
      <g>
       <use style="stroke:#000000;stroke-width:0.6;" x="90" xlink:href="#m8b69477550" y="102.783238"/>
      </g>
     </g>
    </g>
    <g id="ytick_24">
     <g id="line2d_33">
      <g>
       <use style="stroke:#000000;stroke-width:0.6;" x="90" xlink:href="#m8b69477550" y="98.458601"/>
      </g>
     </g>
    </g>
    <g id="ytick_25">
     <g id="line2d_34">
      <g>
       <use style="stroke:#000000;stroke-width:0.6;" x="90" xlink:href="#m8b69477550" y="94.644"/>
      </g>
     </g>
    </g>
    <g id="ytick_26">
     <g id="line2d_35">
      <g>
       <use style="stroke:#000000;stroke-width:0.6;" x="90" xlink:href="#m8b69477550" y="68.782993"/>
      </g>
     </g>
    </g>
   </g>
   <g id="line2d_36">
    <path clip-path="url(#p6d0bf14916)" d="M 117.9 127.147433 
L 145.8 167.228248 
L 173.7 159.981072 
L 201.6 174.692889 
L 229.5 175.512848 
L 257.4 174.438209 
L 285.3 175.295049 
L 313.2 176.041622 
L 341.1 155.046675 
L 369 78.316692 
L 396.9 224.753684 
L 424.8 252.395379 
L 452.7 251.017015 
L 480.6 258.019762 
L 508.5 259.739812 
L 536.4 254.831616 
L 564.3 251.469983 
L 592.2 261.556364 
L 620.1 229.480645 
" style="fill:none;stroke:#0000ff;stroke-linecap:square;stroke-width:1.5;"/>
    <defs>
     <path d="M 0 3 
C 0.795609 3 1.55874 2.683901 2.12132 2.12132 
C 2.683901 1.55874 3 0.795609 3 0 
C 3 -0.795609 2.683901 -1.55874 2.12132 -2.12132 
C 1.55874 -2.683901 0.795609 -3 0 -3 
C -0.795609 -3 -1.55874 -2.683901 -2.12132 -2.12132 
C -2.683901 -1.55874 -3 -0.795609 -3 0 
C -3 0.795609 -2.683901 1.55874 -2.12132 2.12132 
C -1.55874 2.683901 -0.795609 3 0 3 
z
" id="m8a3a38007c" style="stroke:#0000ff;"/>
    </defs>
    <g clip-path="url(#p6d0bf14916)">
     <use style="fill:#0000ff;stroke:#0000ff;" x="117.9" xlink:href="#m8a3a38007c" y="127.147433"/>
     <use style="fill:#0000ff;stroke:#0000ff;" x="145.8" xlink:href="#m8a3a38007c" y="167.228248"/>
     <use style="fill:#0000ff;stroke:#0000ff;" x="173.7" xlink:href="#m8a3a38007c" y="159.981072"/>
     <use style="fill:#0000ff;stroke:#0000ff;" x="201.6" xlink:href="#m8a3a38007c" y="174.692889"/>
     <use style="fill:#0000ff;stroke:#0000ff;" x="229.5" xlink:href="#m8a3a38007c" y="175.512848"/>
     <use style="fill:#0000ff;stroke:#0000ff;" x="257.4" xlink:href="#m8a3a38007c" y="174.438209"/>
     <use style="fill:#0000ff;stroke:#0000ff;" x="285.3" xlink:href="#m8a3a38007c" y="175.295049"/>
     <use style="fill:#0000ff;stroke:#0000ff;" x="313.2" xlink:href="#m8a3a38007c" y="176.041622"/>
     <use style="fill:#0000ff;stroke:#0000ff;" x="341.1" xlink:href="#m8a3a38007c" y="155.046675"/>
     <use style="fill:#0000ff;stroke:#0000ff;" x="369" xlink:href="#m8a3a38007c" y="78.316692"/>
     <use style="fill:#0000ff;stroke:#0000ff;" x="396.9" xlink:href="#m8a3a38007c" y="224.753684"/>
     <use style="fill:#0000ff;stroke:#0000ff;" x="424.8" xlink:href="#m8a3a38007c" y="252.395379"/>
     <use style="fill:#0000ff;stroke:#0000ff;" x="452.7" xlink:href="#m8a3a38007c" y="251.017015"/>
     <use style="fill:#0000ff;stroke:#0000ff;" x="480.6" xlink:href="#m8a3a38007c" y="258.019762"/>
     <use style="fill:#0000ff;stroke:#0000ff;" x="508.5" xlink:href="#m8a3a38007c" y="259.739812"/>
     <use style="fill:#0000ff;stroke:#0000ff;" x="536.4" xlink:href="#m8a3a38007c" y="254.831616"/>
     <use style="fill:#0000ff;stroke:#0000ff;" x="564.3" xlink:href="#m8a3a38007c" y="251.469983"/>
     <use style="fill:#0000ff;stroke:#0000ff;" x="592.2" xlink:href="#m8a3a38007c" y="261.556364"/>
     <use style="fill:#0000ff;stroke:#0000ff;" x="620.1" xlink:href="#m8a3a38007c" y="229.480645"/>
    </g>
   </g>
   <g id="line2d_37">
    <path clip-path="url(#p6d0bf14916)" d="M 117.9 134.258057 
L 145.8 151.057535 
L 173.7 159.402138 
L 201.6 164.569775 
L 229.5 168.137058 
L 257.4 170.770432 
L 285.3 172.80666 
L 313.2 174.436226 
L 341.1 175.775898 
L 369 78.297805 
L 396.9 248.488384 
L 424.8 248.528767 
L 452.7 248.50661 
L 480.6 248.394647 
L 508.5 248.140597 
L 536.4 247.642913 
L 564.3 246.674689 
L 592.2 244.602718 
L 620.1 238.715487 
" style="fill:none;stroke:#ff0000;stroke-linecap:square;stroke-width:1.5;"/>
    <defs>
     <path d="M 0 3 
C 0.795609 3 1.55874 2.683901 2.12132 2.12132 
C 2.683901 1.55874 3 0.795609 3 0 
C 3 -0.795609 2.683901 -1.55874 2.12132 -2.12132 
C 1.55874 -2.683901 0.795609 -3 0 -3 
C -0.795609 -3 -1.55874 -2.683901 -2.12132 -2.12132 
C -2.683901 -1.55874 -3 -0.795609 -3 0 
C -3 0.795609 -2.683901 1.55874 -2.12132 2.12132 
C -1.55874 2.683901 -0.795609 3 0 3 
z
" id="m572f33e100" style="stroke:#ff0000;"/>
    </defs>
    <g clip-path="url(#p6d0bf14916)">
     <use style="fill:#ff0000;stroke:#ff0000;" x="117.9" xlink:href="#m572f33e100" y="134.258057"/>
     <use style="fill:#ff0000;stroke:#ff0000;" x="145.8" xlink:href="#m572f33e100" y="151.057535"/>
     <use style="fill:#ff0000;stroke:#ff0000;" x="173.7" xlink:href="#m572f33e100" y="159.402138"/>
     <use style="fill:#ff0000;stroke:#ff0000;" x="201.6" xlink:href="#m572f33e100" y="164.569775"/>
     <use style="fill:#ff0000;stroke:#ff0000;" x="229.5" xlink:href="#m572f33e100" y="168.137058"/>
     <use style="fill:#ff0000;stroke:#ff0000;" x="257.4" xlink:href="#m572f33e100" y="170.770432"/>
     <use style="fill:#ff0000;stroke:#ff0000;" x="285.3" xlink:href="#m572f33e100" y="172.80666"/>
     <use style="fill:#ff0000;stroke:#ff0000;" x="313.2" xlink:href="#m572f33e100" y="174.436226"/>
     <use style="fill:#ff0000;stroke:#ff0000;" x="341.1" xlink:href="#m572f33e100" y="175.775898"/>
     <use style="fill:#ff0000;stroke:#ff0000;" x="369" xlink:href="#m572f33e100" y="78.297805"/>
     <use style="fill:#ff0000;stroke:#ff0000;" x="396.9" xlink:href="#m572f33e100" y="248.488384"/>
     <use style="fill:#ff0000;stroke:#ff0000;" x="424.8" xlink:href="#m572f33e100" y="248.528767"/>
     <use style="fill:#ff0000;stroke:#ff0000;" x="452.7" xlink:href="#m572f33e100" y="248.50661"/>
     <use style="fill:#ff0000;stroke:#ff0000;" x="480.6" xlink:href="#m572f33e100" y="248.394647"/>
     <use style="fill:#ff0000;stroke:#ff0000;" x="508.5" xlink:href="#m572f33e100" y="248.140597"/>
     <use style="fill:#ff0000;stroke:#ff0000;" x="536.4" xlink:href="#m572f33e100" y="247.642913"/>
     <use style="fill:#ff0000;stroke:#ff0000;" x="564.3" xlink:href="#m572f33e100" y="246.674689"/>
     <use style="fill:#ff0000;stroke:#ff0000;" x="592.2" xlink:href="#m572f33e100" y="244.602718"/>
     <use style="fill:#ff0000;stroke:#ff0000;" x="620.1" xlink:href="#m572f33e100" y="238.715487"/>
    </g>
   </g>
   <g id="line2d_38">
    <path clip-path="url(#p6d0bf14916)" d="M 117.9 133.38027 
L 145.8 151.324132 
L 173.7 160.46217 
L 201.6 166.162535 
L 229.5 170.033799 
L 257.4 172.719405 
L 285.3 174.437942 
L 313.2 174.981005 
L 341.1 172.601174 
L 369 78.283636 
L 396.9 215.49776 
L 424.8 235.007087 
L 452.7 245.356191 
L 480.6 251.681941 
L 508.5 255.45682 
L 536.4 257.100641 
L 564.3 256.373345 
L 592.2 251.989598 
L 620.1 238.92679 
" style="fill:none;stroke:#008000;stroke-linecap:square;stroke-width:1.5;"/>
    <defs>
     <path d="M 0 3 
C 0.795609 3 1.55874 2.683901 2.12132 2.12132 
C 2.683901 1.55874 3 0.795609 3 0 
C 3 -0.795609 2.683901 -1.55874 2.12132 -2.12132 
C 1.55874 -2.683901 0.795609 -3 0 -3 
C -0.795609 -3 -1.55874 -2.683901 -2.12132 -2.12132 
C -2.683901 -1.55874 -3 -0.795609 -3 0 
C -3 0.795609 -2.683901 1.55874 -2.12132 2.12132 
C -1.55874 2.683901 -0.795609 3 0 3 
z
" id="m3b82daec88" style="stroke:#008000;"/>
    </defs>
    <g clip-path="url(#p6d0bf14916)">
     <use style="fill:#008000;stroke:#008000;" x="117.9" xlink:href="#m3b82daec88" y="133.38027"/>
     <use style="fill:#008000;stroke:#008000;" x="145.8" xlink:href="#m3b82daec88" y="151.324132"/>
     <use style="fill:#008000;stroke:#008000;" x="173.7" xlink:href="#m3b82daec88" y="160.46217"/>
     <use style="fill:#008000;stroke:#008000;" x="201.6" xlink:href="#m3b82daec88" y="166.162535"/>
     <use style="fill:#008000;stroke:#008000;" x="229.5" xlink:href="#m3b82daec88" y="170.033799"/>
     <use style="fill:#008000;stroke:#008000;" x="257.4" xlink:href="#m3b82daec88" y="172.719405"/>
     <use style="fill:#008000;stroke:#008000;" x="285.3" xlink:href="#m3b82daec88" y="174.437942"/>
     <use style="fill:#008000;stroke:#008000;" x="313.2" xlink:href="#m3b82daec88" y="174.981005"/>
     <use style="fill:#008000;stroke:#008000;" x="341.1" xlink:href="#m3b82daec88" y="172.601174"/>
     <use style="fill:#008000;stroke:#008000;" x="369" xlink:href="#m3b82daec88" y="78.283636"/>
     <use style="fill:#008000;stroke:#008000;" x="396.9" xlink:href="#m3b82daec88" y="215.49776"/>
     <use style="fill:#008000;stroke:#008000;" x="424.8" xlink:href="#m3b82daec88" y="235.007087"/>
     <use style="fill:#008000;stroke:#008000;" x="452.7" xlink:href="#m3b82daec88" y="245.356191"/>
     <use style="fill:#008000;stroke:#008000;" x="480.6" xlink:href="#m3b82daec88" y="251.681941"/>
     <use style="fill:#008000;stroke:#008000;" x="508.5" xlink:href="#m3b82daec88" y="255.45682"/>
     <use style="fill:#008000;stroke:#008000;" x="536.4" xlink:href="#m3b82daec88" y="257.100641"/>
     <use style="fill:#008000;stroke:#008000;" x="564.3" xlink:href="#m3b82daec88" y="256.373345"/>
     <use style="fill:#008000;stroke:#008000;" x="592.2" xlink:href="#m3b82daec88" y="251.989598"/>
     <use style="fill:#008000;stroke:#008000;" x="620.1" xlink:href="#m3b82daec88" y="238.92679"/>
    </g>
   </g>
   <g id="patch_3">
    <path d="M 90 270.72 
L 90 69.12 
" style="fill:none;stroke:#000000;stroke-linecap:square;stroke-linejoin:miter;stroke-width:0.8;"/>
   </g>
   <g id="patch_4">
    <path d="M 648 270.72 
L 648 69.12 
" style="fill:none;stroke:#000000;stroke-linecap:square;stroke-linejoin:miter;stroke-width:0.8;"/>
   </g>
   <g id="patch_5">
    <path d="M 90 270.72 
L 648 270.72 
" style="fill:none;stroke:#000000;stroke-linecap:square;stroke-linejoin:miter;stroke-width:0.8;"/>
   </g>
   <g id="patch_6">
    <path d="M 90 69.12 
L 648 69.12 
" style="fill:none;stroke:#000000;stroke-linecap:square;stroke-linejoin:miter;stroke-width:0.8;"/>
   </g>
  </g>
  <g id="axes_2">
   <g id="patch_7">
    <path d="M 90 512.64 
L 648 512.64 
L 648 311.04 
L 90 311.04 
z
" style="fill:#ffffff;"/>
   </g>
   <g id="matplotlib.axis_3">
    <g id="xtick_10">
     <g id="line2d_39">
      <g>
       <use style="stroke:#000000;stroke-width:0.8;" x="90" xlink:href="#m815c78996f" y="512.64"/>
      </g>
     </g>
     <g id="text_13">
      <!-- 0.0 -->
      <g transform="translate(82.048438 527.238438)scale(0.1 -0.1)">
       <use xlink:href="#DejaVuSans-30"/>
       <use x="63.623047" xlink:href="#DejaVuSans-2e"/>
       <use x="95.410156" xlink:href="#DejaVuSans-30"/>
      </g>
     </g>
    </g>
    <g id="xtick_11">
     <g id="line2d_40">
      <g>
       <use style="stroke:#000000;stroke-width:0.8;" x="159.75" xlink:href="#m815c78996f" y="512.64"/>
      </g>
     </g>
     <g id="text_14">
      <!-- 2.5 -->
      <g transform="translate(151.798438 527.238438)scale(0.1 -0.1)">
       <use xlink:href="#DejaVuSans-32"/>
       <use x="63.623047" xlink:href="#DejaVuSans-2e"/>
       <use x="95.410156" xlink:href="#DejaVuSans-35"/>
      </g>
     </g>
    </g>
    <g id="xtick_12">
     <g id="line2d_41">
      <g>
       <use style="stroke:#000000;stroke-width:0.8;" x="229.5" xlink:href="#m815c78996f" y="512.64"/>
      </g>
     </g>
     <g id="text_15">
      <!-- 5.0 -->
      <g transform="translate(221.548438 527.238438)scale(0.1 -0.1)">
       <use xlink:href="#DejaVuSans-35"/>
       <use x="63.623047" xlink:href="#DejaVuSans-2e"/>
       <use x="95.410156" xlink:href="#DejaVuSans-30"/>
      </g>
     </g>
    </g>
    <g id="xtick_13">
     <g id="line2d_42">
      <g>
       <use style="stroke:#000000;stroke-width:0.8;" x="299.25" xlink:href="#m815c78996f" y="512.64"/>
      </g>
     </g>
     <g id="text_16">
      <!-- 7.5 -->
      <g transform="translate(291.298437 527.238438)scale(0.1 -0.1)">
       <use xlink:href="#DejaVuSans-37"/>
       <use x="63.623047" xlink:href="#DejaVuSans-2e"/>
       <use x="95.410156" xlink:href="#DejaVuSans-35"/>
      </g>
     </g>
    </g>
    <g id="xtick_14">
     <g id="line2d_43">
      <g>
       <use style="stroke:#000000;stroke-width:0.8;" x="369" xlink:href="#m815c78996f" y="512.64"/>
      </g>
     </g>
     <g id="text_17">
      <!-- 10.0 -->
      <g transform="translate(357.867188 527.238438)scale(0.1 -0.1)">
       <use xlink:href="#DejaVuSans-31"/>
       <use x="63.623047" xlink:href="#DejaVuSans-30"/>
       <use x="127.246094" xlink:href="#DejaVuSans-2e"/>
       <use x="159.033203" xlink:href="#DejaVuSans-30"/>
      </g>
     </g>
    </g>
    <g id="xtick_15">
     <g id="line2d_44">
      <g>
       <use style="stroke:#000000;stroke-width:0.8;" x="438.75" xlink:href="#m815c78996f" y="512.64"/>
      </g>
     </g>
     <g id="text_18">
      <!-- 12.5 -->
      <g transform="translate(427.617188 527.238438)scale(0.1 -0.1)">
       <use xlink:href="#DejaVuSans-31"/>
       <use x="63.623047" xlink:href="#DejaVuSans-32"/>
       <use x="127.246094" xlink:href="#DejaVuSans-2e"/>
       <use x="159.033203" xlink:href="#DejaVuSans-35"/>
      </g>
     </g>
    </g>
    <g id="xtick_16">
     <g id="line2d_45">
      <g>
       <use style="stroke:#000000;stroke-width:0.8;" x="508.5" xlink:href="#m815c78996f" y="512.64"/>
      </g>
     </g>
     <g id="text_19">
      <!-- 15.0 -->
      <g transform="translate(497.367188 527.238438)scale(0.1 -0.1)">
       <use xlink:href="#DejaVuSans-31"/>
       <use x="63.623047" xlink:href="#DejaVuSans-35"/>
       <use x="127.246094" xlink:href="#DejaVuSans-2e"/>
       <use x="159.033203" xlink:href="#DejaVuSans-30"/>
      </g>
     </g>
    </g>
    <g id="xtick_17">
     <g id="line2d_46">
      <g>
       <use style="stroke:#000000;stroke-width:0.8;" x="578.25" xlink:href="#m815c78996f" y="512.64"/>
      </g>
     </g>
     <g id="text_20">
      <!-- 17.5 -->
      <g transform="translate(567.117188 527.238438)scale(0.1 -0.1)">
       <use xlink:href="#DejaVuSans-31"/>
       <use x="63.623047" xlink:href="#DejaVuSans-37"/>
       <use x="127.246094" xlink:href="#DejaVuSans-2e"/>
       <use x="159.033203" xlink:href="#DejaVuSans-35"/>
      </g>
     </g>
    </g>
    <g id="xtick_18">
     <g id="line2d_47">
      <g>
       <use style="stroke:#000000;stroke-width:0.8;" x="648" xlink:href="#m815c78996f" y="512.64"/>
      </g>
     </g>
     <g id="text_21">
      <!-- 20.0 -->
      <g transform="translate(636.867188 527.238438)scale(0.1 -0.1)">
       <use xlink:href="#DejaVuSans-32"/>
       <use x="63.623047" xlink:href="#DejaVuSans-30"/>
       <use x="127.246094" xlink:href="#DejaVuSans-2e"/>
       <use x="159.033203" xlink:href="#DejaVuSans-30"/>
      </g>
     </g>
    </g>
   </g>
   <g id="matplotlib.axis_4">
    <g id="ytick_27">
     <g id="line2d_48">
      <g>
       <use style="stroke:#000000;stroke-width:0.8;" x="90" xlink:href="#mcc1b2cafeb" y="495.653226"/>
      </g>
     </g>
     <g id="text_22">
      <!-- −20 -->
      <defs>
       <path d="M 10.59375 35.5 
L 73.1875 35.5 
L 73.1875 27.203125 
L 10.59375 27.203125 
z
" id="DejaVuSans-2212"/>
      </defs>
      <g transform="translate(61.895313 499.452445)scale(0.1 -0.1)">
       <use xlink:href="#DejaVuSans-2212"/>
       <use x="83.789062" xlink:href="#DejaVuSans-32"/>
       <use x="147.412109" xlink:href="#DejaVuSans-30"/>
      </g>
     </g>
    </g>
    <g id="ytick_28">
     <g id="line2d_49">
      <g>
       <use style="stroke:#000000;stroke-width:0.8;" x="90" xlink:href="#mcc1b2cafeb" y="471.856894"/>
      </g>
     </g>
     <g id="text_23">
      <!-- −15 -->
      <g transform="translate(61.895313 475.656113)scale(0.1 -0.1)">
       <use xlink:href="#DejaVuSans-2212"/>
       <use x="83.789062" xlink:href="#DejaVuSans-31"/>
       <use x="147.412109" xlink:href="#DejaVuSans-35"/>
      </g>
     </g>
    </g>
    <g id="ytick_29">
     <g id="line2d_50">
      <g>
       <use style="stroke:#000000;stroke-width:0.8;" x="90" xlink:href="#mcc1b2cafeb" y="448.060562"/>
      </g>
     </g>
     <g id="text_24">
      <!-- −10 -->
      <g transform="translate(61.895313 451.859781)scale(0.1 -0.1)">
       <use xlink:href="#DejaVuSans-2212"/>
       <use x="83.789062" xlink:href="#DejaVuSans-31"/>
       <use x="147.412109" xlink:href="#DejaVuSans-30"/>
      </g>
     </g>
    </g>
    <g id="ytick_30">
     <g id="line2d_51">
      <g>
       <use style="stroke:#000000;stroke-width:0.8;" x="90" xlink:href="#mcc1b2cafeb" y="424.26423"/>
      </g>
     </g>
     <g id="text_25">
      <!-- −5 -->
      <g transform="translate(68.257812 428.063449)scale(0.1 -0.1)">
       <use xlink:href="#DejaVuSans-2212"/>
       <use x="83.789062" xlink:href="#DejaVuSans-35"/>
      </g>
     </g>
    </g>
    <g id="ytick_31">
     <g id="line2d_52">
      <g>
       <use style="stroke:#000000;stroke-width:0.8;" x="90" xlink:href="#mcc1b2cafeb" y="400.467898"/>
      </g>
     </g>
     <g id="text_26">
      <!-- 0 -->
      <g transform="translate(76.6375 404.267117)scale(0.1 -0.1)">
       <use xlink:href="#DejaVuSans-30"/>
      </g>
     </g>
    </g>
    <g id="ytick_32">
     <g id="line2d_53">
      <g>
       <use style="stroke:#000000;stroke-width:0.8;" x="90" xlink:href="#mcc1b2cafeb" y="376.671566"/>
      </g>
     </g>
     <g id="text_27">
      <!-- 5 -->
      <g transform="translate(76.6375 380.470785)scale(0.1 -0.1)">
       <use xlink:href="#DejaVuSans-35"/>
      </g>
     </g>
    </g>
    <g id="ytick_33">
     <g id="line2d_54">
      <g>
       <use style="stroke:#000000;stroke-width:0.8;" x="90" xlink:href="#mcc1b2cafeb" y="352.875234"/>
      </g>
     </g>
     <g id="text_28">
      <!-- 10 -->
      <g transform="translate(70.275 356.674453)scale(0.1 -0.1)">
       <use xlink:href="#DejaVuSans-31"/>
       <use x="63.623047" xlink:href="#DejaVuSans-30"/>
      </g>
     </g>
    </g>
    <g id="ytick_34">
     <g id="line2d_55">
      <g>
       <use style="stroke:#000000;stroke-width:0.8;" x="90" xlink:href="#mcc1b2cafeb" y="329.078902"/>
      </g>
     </g>
     <g id="text_29">
      <!-- 15 -->
      <g transform="translate(70.275 332.878121)scale(0.1 -0.1)">
       <use xlink:href="#DejaVuSans-31"/>
       <use x="63.623047" xlink:href="#DejaVuSans-35"/>
      </g>
     </g>
    </g>
   </g>
   <g id="line2d_56">
    <path clip-path="url(#p66ff01e8ff)" d="M 117.9 458.380957 
L 145.8 320.203636 
L 173.7 397.51556 
L 201.6 357.18346 
L 229.5 369.79026 
L 257.4 385.261681 
L 285.3 390.349742 
L 313.2 394.044575 
L 341.1 503.476364 
L 369 400.129066 
L 396.9 440.168151 
L 424.8 395.648261 
L 452.7 397.294205 
L 480.6 389.121101 
L 508.5 387.006061 
L 536.4 391.683465 
L 564.3 394.374957 
L 592.2 380.748839 
L 620.1 415.809828 
" style="fill:none;stroke:#00bfbf;stroke-linecap:square;stroke-width:1.5;"/>
    <defs>
     <path d="M 0 3 
C 0.795609 3 1.55874 2.683901 2.12132 2.12132 
C 2.683901 1.55874 3 0.795609 3 0 
C 3 -0.795609 2.683901 -1.55874 2.12132 -2.12132 
C 1.55874 -2.683901 0.795609 -3 0 -3 
C -0.795609 -3 -1.55874 -2.683901 -2.12132 -2.12132 
C -2.683901 -1.55874 -3 -0.795609 -3 0 
C -3 0.795609 -2.683901 1.55874 -2.12132 2.12132 
C -1.55874 2.683901 -0.795609 3 0 3 
z
" id="m73f06f2191" style="stroke:#00bfbf;"/>
    </defs>
    <g clip-path="url(#p66ff01e8ff)">
     <use style="fill:#00bfbf;stroke:#00bfbf;" x="117.9" xlink:href="#m73f06f2191" y="458.380957"/>
     <use style="fill:#00bfbf;stroke:#00bfbf;" x="145.8" xlink:href="#m73f06f2191" y="320.203636"/>
     <use style="fill:#00bfbf;stroke:#00bfbf;" x="173.7" xlink:href="#m73f06f2191" y="397.51556"/>
     <use style="fill:#00bfbf;stroke:#00bfbf;" x="201.6" xlink:href="#m73f06f2191" y="357.18346"/>
     <use style="fill:#00bfbf;stroke:#00bfbf;" x="229.5" xlink:href="#m73f06f2191" y="369.79026"/>
     <use style="fill:#00bfbf;stroke:#00bfbf;" x="257.4" xlink:href="#m73f06f2191" y="385.261681"/>
     <use style="fill:#00bfbf;stroke:#00bfbf;" x="285.3" xlink:href="#m73f06f2191" y="390.349742"/>
     <use style="fill:#00bfbf;stroke:#00bfbf;" x="313.2" xlink:href="#m73f06f2191" y="394.044575"/>
     <use style="fill:#00bfbf;stroke:#00bfbf;" x="341.1" xlink:href="#m73f06f2191" y="503.476364"/>
     <use style="fill:#00bfbf;stroke:#00bfbf;" x="369" xlink:href="#m73f06f2191" y="400.129066"/>
     <use style="fill:#00bfbf;stroke:#00bfbf;" x="396.9" xlink:href="#m73f06f2191" y="440.168151"/>
     <use style="fill:#00bfbf;stroke:#00bfbf;" x="424.8" xlink:href="#m73f06f2191" y="395.648261"/>
     <use style="fill:#00bfbf;stroke:#00bfbf;" x="452.7" xlink:href="#m73f06f2191" y="397.294205"/>
     <use style="fill:#00bfbf;stroke:#00bfbf;" x="480.6" xlink:href="#m73f06f2191" y="389.121101"/>
     <use style="fill:#00bfbf;stroke:#00bfbf;" x="508.5" xlink:href="#m73f06f2191" y="387.006061"/>
     <use style="fill:#00bfbf;stroke:#00bfbf;" x="536.4" xlink:href="#m73f06f2191" y="391.683465"/>
     <use style="fill:#00bfbf;stroke:#00bfbf;" x="564.3" xlink:href="#m73f06f2191" y="394.374957"/>
     <use style="fill:#00bfbf;stroke:#00bfbf;" x="592.2" xlink:href="#m73f06f2191" y="380.748839"/>
     <use style="fill:#00bfbf;stroke:#00bfbf;" x="620.1" xlink:href="#m73f06f2191" y="415.809828"/>
    </g>
   </g>
   <g id="line2d_57">
    <path clip-path="url(#p66ff01e8ff)" d="M 117.9 451.451024 
L 145.8 321.646998 
L 173.7 402.90796 
L 201.6 364.310431 
L 229.5 377.910269 
L 257.4 393.414326 
L 285.3 397.012237 
L 313.2 396.236266 
L 341.1 488.947481 
L 369 399.874845 
L 396.9 382.278301 
L 424.8 377.117243 
L 452.7 393.191379 
L 480.6 393.128218 
L 508.5 395.690124 
L 536.4 403.107033 
L 564.3 406.395632 
L 592.2 389.791548 
L 620.1 416.144927 
" style="fill:none;stroke:#bf00bf;stroke-linecap:square;stroke-width:1.5;"/>
    <defs>
     <path d="M 0 3 
C 0.795609 3 1.55874 2.683901 2.12132 2.12132 
C 2.683901 1.55874 3 0.795609 3 0 
C 3 -0.795609 2.683901 -1.55874 2.12132 -2.12132 
C 1.55874 -2.683901 0.795609 -3 0 -3 
C -0.795609 -3 -1.55874 -2.683901 -2.12132 -2.12132 
C -2.683901 -1.55874 -3 -0.795609 -3 0 
C -3 0.795609 -2.683901 1.55874 -2.12132 2.12132 
C -1.55874 2.683901 -0.795609 3 0 3 
z
" id="m0079caf3ce" style="stroke:#bf00bf;"/>
    </defs>
    <g clip-path="url(#p66ff01e8ff)">
     <use style="fill:#bf00bf;stroke:#bf00bf;" x="117.9" xlink:href="#m0079caf3ce" y="451.451024"/>
     <use style="fill:#bf00bf;stroke:#bf00bf;" x="145.8" xlink:href="#m0079caf3ce" y="321.646998"/>
     <use style="fill:#bf00bf;stroke:#bf00bf;" x="173.7" xlink:href="#m0079caf3ce" y="402.90796"/>
     <use style="fill:#bf00bf;stroke:#bf00bf;" x="201.6" xlink:href="#m0079caf3ce" y="364.310431"/>
     <use style="fill:#bf00bf;stroke:#bf00bf;" x="229.5" xlink:href="#m0079caf3ce" y="377.910269"/>
     <use style="fill:#bf00bf;stroke:#bf00bf;" x="257.4" xlink:href="#m0079caf3ce" y="393.414326"/>
     <use style="fill:#bf00bf;stroke:#bf00bf;" x="285.3" xlink:href="#m0079caf3ce" y="397.012237"/>
     <use style="fill:#bf00bf;stroke:#bf00bf;" x="313.2" xlink:href="#m0079caf3ce" y="396.236266"/>
     <use style="fill:#bf00bf;stroke:#bf00bf;" x="341.1" xlink:href="#m0079caf3ce" y="488.947481"/>
     <use style="fill:#bf00bf;stroke:#bf00bf;" x="369" xlink:href="#m0079caf3ce" y="399.874845"/>
     <use style="fill:#bf00bf;stroke:#bf00bf;" x="396.9" xlink:href="#m0079caf3ce" y="382.278301"/>
     <use style="fill:#bf00bf;stroke:#bf00bf;" x="424.8" xlink:href="#m0079caf3ce" y="377.117243"/>
     <use style="fill:#bf00bf;stroke:#bf00bf;" x="452.7" xlink:href="#m0079caf3ce" y="393.191379"/>
     <use style="fill:#bf00bf;stroke:#bf00bf;" x="480.6" xlink:href="#m0079caf3ce" y="393.128218"/>
     <use style="fill:#bf00bf;stroke:#bf00bf;" x="508.5" xlink:href="#m0079caf3ce" y="395.690124"/>
     <use style="fill:#bf00bf;stroke:#bf00bf;" x="536.4" xlink:href="#m0079caf3ce" y="403.107033"/>
     <use style="fill:#bf00bf;stroke:#bf00bf;" x="564.3" xlink:href="#m0079caf3ce" y="406.395632"/>
     <use style="fill:#bf00bf;stroke:#bf00bf;" x="592.2" xlink:href="#m0079caf3ce" y="389.791548"/>
     <use style="fill:#bf00bf;stroke:#bf00bf;" x="620.1" xlink:href="#m0079caf3ce" y="416.144927"/>
    </g>
   </g>
   <g id="patch_8">
    <path d="M 90 512.64 
L 90 311.04 
" style="fill:none;stroke:#000000;stroke-linecap:square;stroke-linejoin:miter;stroke-width:0.8;"/>
   </g>
   <g id="patch_9">
    <path d="M 648 512.64 
L 648 311.04 
" style="fill:none;stroke:#000000;stroke-linecap:square;stroke-linejoin:miter;stroke-width:0.8;"/>
   </g>
   <g id="patch_10">
    <path d="M 90 512.64 
L 648 512.64 
" style="fill:none;stroke:#000000;stroke-linecap:square;stroke-linejoin:miter;stroke-width:0.8;"/>
   </g>
   <g id="patch_11">
    <path d="M 90 311.04 
L 648 311.04 
" style="fill:none;stroke:#000000;stroke-linecap:square;stroke-linejoin:miter;stroke-width:0.8;"/>
   </g>
  </g>
 </g>
 <defs>
  <clipPath id="p6d0bf14916">
   <rect height="201.6" width="558" x="90" y="69.12"/>
  </clipPath>
  <clipPath id="p66ff01e8ff">
   <rect height="201.6" width="558" x="90" y="311.04"/>
  </clipPath>
 </defs>
</svg>
