<?xml version="1.0" encoding="utf-8" standalone="no"?>
<!DOCTYPE svg PUBLIC "-//W3C//DTD SVG 1.1//EN"
  "http://www.w3.org/Graphics/SVG/1.1/DTD/svg11.dtd">
<!-- Created with matplotlib (http://matplotlib.org/) -->
<svg height="576pt" version="1.1" viewBox="0 0 720 576" width="720pt" xmlns="http://www.w3.org/2000/svg" xmlns:xlink="http://www.w3.org/1999/xlink">
 <defs>
  <style type="text/css">
*{stroke-linecap:butt;stroke-linejoin:round;}
  </style>
 </defs>
 <g id="figure_1">
  <g id="patch_1">
   <path d="M 0 576 
L 720 576 
L 720 0 
L 0 0 
z
" style="fill:#ffffff;"/>
  </g>
  <g id="axes_1">
   <g id="patch_2">
    <path d="M 90 270.72 
L 648 270.72 
L 648 69.12 
L 90 69.12 
z
" style="fill:#ffffff;"/>
   </g>
   <g id="matplotlib.axis_1">
    <g id="xtick_1">
     <g id="line2d_1">
      <defs>
       <path d="M 0 0 
L 0 3.5 
" id="m85cbfba430" style="stroke:#000000;stroke-width:0.8;"/>
      </defs>
      <g>
       <use style="stroke:#000000;stroke-width:0.8;" x="90" xlink:href="#m85cbfba430" y="270.72"/>
      </g>
     </g>
     <g id="text_1">
      <!-- 0.0 -->
      <defs>
       <path d="M 31.78125 66.40625 
Q 24.171875 66.40625 20.328125 58.90625 
Q 16.5 51.421875 16.5 36.375 
Q 16.5 21.390625 20.328125 13.890625 
Q 24.171875 6.390625 31.78125 6.390625 
Q 39.453125 6.390625 43.28125 13.890625 
Q 47.125 21.390625 47.125 36.375 
Q 47.125 51.421875 43.28125 58.90625 
Q 39.453125 66.40625 31.78125 66.40625 
z
M 31.78125 74.21875 
Q 44.046875 74.21875 50.515625 64.515625 
Q 56.984375 54.828125 56.984375 36.375 
Q 56.984375 17.96875 50.515625 8.265625 
Q 44.046875 -1.421875 31.78125 -1.421875 
Q 19.53125 -1.421875 13.0625 8.265625 
Q 6.59375 17.96875 6.59375 36.375 
Q 6.59375 54.828125 13.0625 64.515625 
Q 19.53125 74.21875 31.78125 74.21875 
z
" id="DejaVuSans-30"/>
       <path d="M 10.6875 12.40625 
L 21 12.40625 
L 21 0 
L 10.6875 0 
z
" id="DejaVuSans-2e"/>
      </defs>
      <g transform="translate(82.048438 285.318437)scale(0.1 -0.1)">
       <use xlink:href="#DejaVuSans-30"/>
       <use x="63.623047" xlink:href="#DejaVuSans-2e"/>
       <use x="95.410156" xlink:href="#DejaVuSans-30"/>
      </g>
     </g>
    </g>
    <g id="xtick_2">
     <g id="line2d_2">
      <g>
       <use style="stroke:#000000;stroke-width:0.8;" x="159.75" xlink:href="#m85cbfba430" y="270.72"/>
      </g>
     </g>
     <g id="text_2">
      <!-- 2.5 -->
      <defs>
       <path d="M 19.1875 8.296875 
L 53.609375 8.296875 
L 53.609375 0 
L 7.328125 0 
L 7.328125 8.296875 
Q 12.9375 14.109375 22.625 23.890625 
Q 32.328125 33.6875 34.8125 36.53125 
Q 39.546875 41.84375 41.421875 45.53125 
Q 43.3125 49.21875 43.3125 52.78125 
Q 43.3125 58.59375 39.234375 62.25 
Q 35.15625 65.921875 28.609375 65.921875 
Q 23.96875 65.921875 18.8125 64.3125 
Q 13.671875 62.703125 7.8125 59.421875 
L 7.8125 69.390625 
Q 13.765625 71.78125 18.9375 73 
Q 24.125 74.21875 28.421875 74.21875 
Q 39.75 74.21875 46.484375 68.546875 
Q 53.21875 62.890625 53.21875 53.421875 
Q 53.21875 48.921875 51.53125 44.890625 
Q 49.859375 40.875 45.40625 35.40625 
Q 44.1875 33.984375 37.640625 27.21875 
Q 31.109375 20.453125 19.1875 8.296875 
z
" id="DejaVuSans-32"/>
       <path d="M 10.796875 72.90625 
L 49.515625 72.90625 
L 49.515625 64.59375 
L 19.828125 64.59375 
L 19.828125 46.734375 
Q 21.96875 47.46875 24.109375 47.828125 
Q 26.265625 48.1875 28.421875 48.1875 
Q 40.625 48.1875 47.75 41.5 
Q 54.890625 34.8125 54.890625 23.390625 
Q 54.890625 11.625 47.5625 5.09375 
Q 40.234375 -1.421875 26.90625 -1.421875 
Q 22.3125 -1.421875 17.546875 -0.640625 
Q 12.796875 0.140625 7.71875 1.703125 
L 7.71875 11.625 
Q 12.109375 9.234375 16.796875 8.0625 
Q 21.484375 6.890625 26.703125 6.890625 
Q 35.15625 6.890625 40.078125 11.328125 
Q 45.015625 15.765625 45.015625 23.390625 
Q 45.015625 31 40.078125 35.4375 
Q 35.15625 39.890625 26.703125 39.890625 
Q 22.75 39.890625 18.8125 39.015625 
Q 14.890625 38.140625 10.796875 36.28125 
z
" id="DejaVuSans-35"/>
      </defs>
      <g transform="translate(151.798438 285.318437)scale(0.1 -0.1)">
       <use xlink:href="#DejaVuSans-32"/>
       <use x="63.623047" xlink:href="#DejaVuSans-2e"/>
       <use x="95.410156" xlink:href="#DejaVuSans-35"/>
      </g>
     </g>
    </g>
    <g id="xtick_3">
     <g id="line2d_3">
      <g>
       <use style="stroke:#000000;stroke-width:0.8;" x="229.5" xlink:href="#m85cbfba430" y="270.72"/>
      </g>
     </g>
     <g id="text_3">
      <!-- 5.0 -->
      <g transform="translate(221.548438 285.318437)scale(0.1 -0.1)">
       <use xlink:href="#DejaVuSans-35"/>
       <use x="63.623047" xlink:href="#DejaVuSans-2e"/>
       <use x="95.410156" xlink:href="#DejaVuSans-30"/>
      </g>
     </g>
    </g>
    <g id="xtick_4">
     <g id="line2d_4">
      <g>
       <use style="stroke:#000000;stroke-width:0.8;" x="299.25" xlink:href="#m85cbfba430" y="270.72"/>
      </g>
     </g>
     <g id="text_4">
      <!-- 7.5 -->
      <defs>
       <path d="M 8.203125 72.90625 
L 55.078125 72.90625 
L 55.078125 68.703125 
L 28.609375 0 
L 18.3125 0 
L 43.21875 64.59375 
L 8.203125 64.59375 
z
" id="DejaVuSans-37"/>
      </defs>
      <g transform="translate(291.298437 285.318437)scale(0.1 -0.1)">
       <use xlink:href="#DejaVuSans-37"/>
       <use x="63.623047" xlink:href="#DejaVuSans-2e"/>
       <use x="95.410156" xlink:href="#DejaVuSans-35"/>
      </g>
     </g>
    </g>
    <g id="xtick_5">
     <g id="line2d_5">
      <g>
       <use style="stroke:#000000;stroke-width:0.8;" x="369" xlink:href="#m85cbfba430" y="270.72"/>
      </g>
     </g>
     <g id="text_5">
      <!-- 10.0 -->
      <defs>
       <path d="M 12.40625 8.296875 
L 28.515625 8.296875 
L 28.515625 63.921875 
L 10.984375 60.40625 
L 10.984375 69.390625 
L 28.421875 72.90625 
L 38.28125 72.90625 
L 38.28125 8.296875 
L 54.390625 8.296875 
L 54.390625 0 
L 12.40625 0 
z
" id="DejaVuSans-31"/>
      </defs>
      <g transform="translate(357.867188 285.318437)scale(0.1 -0.1)">
       <use xlink:href="#DejaVuSans-31"/>
       <use x="63.623047" xlink:href="#DejaVuSans-30"/>
       <use x="127.246094" xlink:href="#DejaVuSans-2e"/>
       <use x="159.033203" xlink:href="#DejaVuSans-30"/>
      </g>
     </g>
    </g>
    <g id="xtick_6">
     <g id="line2d_6">
      <g>
       <use style="stroke:#000000;stroke-width:0.8;" x="438.75" xlink:href="#m85cbfba430" y="270.72"/>
      </g>
     </g>
     <g id="text_6">
      <!-- 12.5 -->
      <g transform="translate(427.617188 285.318437)scale(0.1 -0.1)">
       <use xlink:href="#DejaVuSans-31"/>
       <use x="63.623047" xlink:href="#DejaVuSans-32"/>
       <use x="127.246094" xlink:href="#DejaVuSans-2e"/>
       <use x="159.033203" xlink:href="#DejaVuSans-35"/>
      </g>
     </g>
    </g>
    <g id="xtick_7">
     <g id="line2d_7">
      <g>
       <use style="stroke:#000000;stroke-width:0.8;" x="508.5" xlink:href="#m85cbfba430" y="270.72"/>
      </g>
     </g>
     <g id="text_7">
      <!-- 15.0 -->
      <g transform="translate(497.367188 285.318437)scale(0.1 -0.1)">
       <use xlink:href="#DejaVuSans-31"/>
       <use x="63.623047" xlink:href="#DejaVuSans-35"/>
       <use x="127.246094" xlink:href="#DejaVuSans-2e"/>
       <use x="159.033203" xlink:href="#DejaVuSans-30"/>
      </g>
     </g>
    </g>
    <g id="xtick_8">
     <g id="line2d_8">
      <g>
       <use style="stroke:#000000;stroke-width:0.8;" x="578.25" xlink:href="#m85cbfba430" y="270.72"/>
      </g>
     </g>
     <g id="text_8">
      <!-- 17.5 -->
      <g transform="translate(567.117188 285.318437)scale(0.1 -0.1)">
       <use xlink:href="#DejaVuSans-31"/>
       <use x="63.623047" xlink:href="#DejaVuSans-37"/>
       <use x="127.246094" xlink:href="#DejaVuSans-2e"/>
       <use x="159.033203" xlink:href="#DejaVuSans-35"/>
      </g>
     </g>
    </g>
    <g id="xtick_9">
     <g id="line2d_9">
      <g>
       <use style="stroke:#000000;stroke-width:0.8;" x="648" xlink:href="#m85cbfba430" y="270.72"/>
      </g>
     </g>
     <g id="text_9">
      <!-- 20.0 -->
      <g transform="translate(636.867188 285.318437)scale(0.1 -0.1)">
       <use xlink:href="#DejaVuSans-32"/>
       <use x="63.623047" xlink:href="#DejaVuSans-30"/>
       <use x="127.246094" xlink:href="#DejaVuSans-2e"/>
       <use x="159.033203" xlink:href="#DejaVuSans-30"/>
      </g>
     </g>
    </g>
   </g>
   <g id="matplotlib.axis_2">
    <g id="ytick_1">
     <g id="line2d_10">
      <defs>
       <path d="M 0 0 
L -3.5 0 
" id="mf632bfd439" style="stroke:#000000;stroke-width:0.8;"/>
      </defs>
      <g>
       <use style="stroke:#000000;stroke-width:0.8;" x="90" xlink:href="#mf632bfd439" y="240.378694"/>
      </g>
     </g>
     <g id="text_10">
      <!-- $\mathdefault{10^{2}}$ -->
      <g transform="translate(65.4 244.177912)scale(0.1 -0.1)">
       <use transform="translate(0 0.765625)" xlink:href="#DejaVuSans-31"/>
       <use transform="translate(63.623047 0.765625)" xlink:href="#DejaVuSans-30"/>
       <use transform="translate(128.203125 39.046875)scale(0.7)" xlink:href="#DejaVuSans-32"/>
      </g>
     </g>
    </g>
    <g id="ytick_2">
     <g id="line2d_11">
      <g>
       <use style="stroke:#000000;stroke-width:0.8;" x="90" xlink:href="#mf632bfd439" y="165.808555"/>
      </g>
     </g>
     <g id="text_11">
      <!-- $\mathdefault{10^{3}}$ -->
      <defs>
       <path d="M 40.578125 39.3125 
Q 47.65625 37.796875 51.625 33 
Q 55.609375 28.21875 55.609375 21.1875 
Q 55.609375 10.40625 48.1875 4.484375 
Q 40.765625 -1.421875 27.09375 -1.421875 
Q 22.515625 -1.421875 17.65625 -0.515625 
Q 12.796875 0.390625 7.625 2.203125 
L 7.625 11.71875 
Q 11.71875 9.328125 16.59375 8.109375 
Q 21.484375 6.890625 26.8125 6.890625 
Q 36.078125 6.890625 40.9375 10.546875 
Q 45.796875 14.203125 45.796875 21.1875 
Q 45.796875 27.640625 41.28125 31.265625 
Q 36.765625 34.90625 28.71875 34.90625 
L 20.21875 34.90625 
L 20.21875 43.015625 
L 29.109375 43.015625 
Q 36.375 43.015625 40.234375 45.921875 
Q 44.09375 48.828125 44.09375 54.296875 
Q 44.09375 59.90625 40.109375 62.90625 
Q 36.140625 65.921875 28.71875 65.921875 
Q 24.65625 65.921875 20.015625 65.03125 
Q 15.375 64.15625 9.8125 62.3125 
L 9.8125 71.09375 
Q 15.4375 72.65625 20.34375 73.4375 
Q 25.25 74.21875 29.59375 74.21875 
Q 40.828125 74.21875 47.359375 69.109375 
Q 53.90625 64.015625 53.90625 55.328125 
Q 53.90625 49.265625 50.4375 45.09375 
Q 46.96875 40.921875 40.578125 39.3125 
z
" id="DejaVuSans-33"/>
      </defs>
      <g transform="translate(65.4 169.607773)scale(0.1 -0.1)">
       <use transform="translate(0 0.765625)" xlink:href="#DejaVuSans-31"/>
       <use transform="translate(63.623047 0.765625)" xlink:href="#DejaVuSans-30"/>
       <use transform="translate(128.203125 39.046875)scale(0.7)" xlink:href="#DejaVuSans-33"/>
      </g>
     </g>
    </g>
    <g id="ytick_3">
     <g id="line2d_12">
      <g>
       <use style="stroke:#000000;stroke-width:0.8;" x="90" xlink:href="#mf632bfd439" y="91.238416"/>
      </g>
     </g>
     <g id="text_12">
      <!-- $\mathdefault{10^{4}}$ -->
      <defs>
       <path d="M 37.796875 64.3125 
L 12.890625 25.390625 
L 37.796875 25.390625 
z
M 35.203125 72.90625 
L 47.609375 72.90625 
L 47.609375 25.390625 
L 58.015625 25.390625 
L 58.015625 17.1875 
L 47.609375 17.1875 
L 47.609375 0 
L 37.796875 0 
L 37.796875 17.1875 
L 4.890625 17.1875 
L 4.890625 26.703125 
z
" id="DejaVuSans-34"/>
      </defs>
      <g transform="translate(65.4 95.037635)scale(0.1 -0.1)">
       <use transform="translate(0 0.684375)" xlink:href="#DejaVuSans-31"/>
       <use transform="translate(63.623047 0.684375)" xlink:href="#DejaVuSans-30"/>
       <use transform="translate(128.203125 38.965625)scale(0.7)" xlink:href="#DejaVuSans-34"/>
      </g>
     </g>
    </g>
    <g id="ytick_4">
     <g id="line2d_13">
      <defs>
       <path d="M 0 0 
L -2 0 
" id="ma79fd7ab5d" style="stroke:#000000;stroke-width:0.6;"/>
      </defs>
      <g>
       <use style="stroke:#000000;stroke-width:0.6;" x="90" xlink:href="#ma79fd7ab5d" y="270.053135"/>
      </g>
     </g>
    </g>
    <g id="ytick_5">
     <g id="line2d_14">
      <g>
       <use style="stroke:#000000;stroke-width:0.6;" x="90" xlink:href="#ma79fd7ab5d" y="262.826542"/>
      </g>
     </g>
    </g>
    <g id="ytick_6">
     <g id="line2d_15">
      <g>
       <use style="stroke:#000000;stroke-width:0.6;" x="90" xlink:href="#ma79fd7ab5d" y="256.921986"/>
      </g>
     </g>
    </g>
    <g id="ytick_7">
     <g id="line2d_16">
      <g>
       <use style="stroke:#000000;stroke-width:0.6;" x="90" xlink:href="#ma79fd7ab5d" y="251.929754"/>
      </g>
     </g>
    </g>
    <g id="ytick_8">
     <g id="line2d_17">
      <g>
       <use style="stroke:#000000;stroke-width:0.6;" x="90" xlink:href="#ma79fd7ab5d" y="247.605287"/>
      </g>
     </g>
    </g>
    <g id="ytick_9">
     <g id="line2d_18">
      <g>
       <use style="stroke:#000000;stroke-width:0.6;" x="90" xlink:href="#ma79fd7ab5d" y="243.790836"/>
      </g>
     </g>
    </g>
    <g id="ytick_10">
     <g id="line2d_19">
      <g>
       <use style="stroke:#000000;stroke-width:0.6;" x="90" xlink:href="#ma79fd7ab5d" y="217.930845"/>
      </g>
     </g>
    </g>
    <g id="ytick_11">
     <g id="line2d_20">
      <g>
       <use style="stroke:#000000;stroke-width:0.6;" x="90" xlink:href="#ma79fd7ab5d" y="204.799695"/>
      </g>
     </g>
    </g>
    <g id="ytick_12">
     <g id="line2d_21">
      <g>
       <use style="stroke:#000000;stroke-width:0.6;" x="90" xlink:href="#ma79fd7ab5d" y="195.482996"/>
      </g>
     </g>
    </g>
    <g id="ytick_13">
     <g id="line2d_22">
      <g>
       <use style="stroke:#000000;stroke-width:0.6;" x="90" xlink:href="#ma79fd7ab5d" y="188.256403"/>
      </g>
     </g>
    </g>
    <g id="ytick_14">
     <g id="line2d_23">
      <g>
       <use style="stroke:#000000;stroke-width:0.6;" x="90" xlink:href="#ma79fd7ab5d" y="182.351847"/>
      </g>
     </g>
    </g>
    <g id="ytick_15">
     <g id="line2d_24">
      <g>
       <use style="stroke:#000000;stroke-width:0.6;" x="90" xlink:href="#ma79fd7ab5d" y="177.359615"/>
      </g>
     </g>
    </g>
    <g id="ytick_16">
     <g id="line2d_25">
      <g>
       <use style="stroke:#000000;stroke-width:0.6;" x="90" xlink:href="#ma79fd7ab5d" y="173.035148"/>
      </g>
     </g>
    </g>
    <g id="ytick_17">
     <g id="line2d_26">
      <g>
       <use style="stroke:#000000;stroke-width:0.6;" x="90" xlink:href="#ma79fd7ab5d" y="169.220697"/>
      </g>
     </g>
    </g>
    <g id="ytick_18">
     <g id="line2d_27">
      <g>
       <use style="stroke:#000000;stroke-width:0.6;" x="90" xlink:href="#ma79fd7ab5d" y="143.360706"/>
      </g>
     </g>
    </g>
    <g id="ytick_19">
     <g id="line2d_28">
      <g>
       <use style="stroke:#000000;stroke-width:0.6;" x="90" xlink:href="#ma79fd7ab5d" y="130.229556"/>
      </g>
     </g>
    </g>
    <g id="ytick_20">
     <g id="line2d_29">
      <g>
       <use style="stroke:#000000;stroke-width:0.6;" x="90" xlink:href="#ma79fd7ab5d" y="120.912857"/>
      </g>
     </g>
    </g>
    <g id="ytick_21">
     <g id="line2d_30">
      <g>
       <use style="stroke:#000000;stroke-width:0.6;" x="90" xlink:href="#ma79fd7ab5d" y="113.686264"/>
      </g>
     </g>
    </g>
    <g id="ytick_22">
     <g id="line2d_31">
      <g>
       <use style="stroke:#000000;stroke-width:0.6;" x="90" xlink:href="#ma79fd7ab5d" y="107.781708"/>
      </g>
     </g>
    </g>
    <g id="ytick_23">
     <g id="line2d_32">
      <g>
       <use style="stroke:#000000;stroke-width:0.6;" x="90" xlink:href="#ma79fd7ab5d" y="102.789476"/>
      </g>
     </g>
    </g>
    <g id="ytick_24">
     <g id="line2d_33">
      <g>
       <use style="stroke:#000000;stroke-width:0.6;" x="90" xlink:href="#ma79fd7ab5d" y="98.465009"/>
      </g>
     </g>
    </g>
    <g id="ytick_25">
     <g id="line2d_34">
      <g>
       <use style="stroke:#000000;stroke-width:0.6;" x="90" xlink:href="#ma79fd7ab5d" y="94.650558"/>
      </g>
     </g>
    </g>
    <g id="ytick_26">
     <g id="line2d_35">
      <g>
       <use style="stroke:#000000;stroke-width:0.6;" x="90" xlink:href="#ma79fd7ab5d" y="68.790567"/>
      </g>
     </g>
    </g>
   </g>
   <g id="line2d_36">
    <path clip-path="url(#pa4ccd2e4bb)" d="M 117.9 127.152713 
L 145.8 167.231954 
L 173.7 159.985063 
L 201.6 174.696302 
L 229.5 175.516229 
L 257.4 174.441631 
L 285.3 175.298438 
L 313.2 176.044982 
L 341.1 155.05086 
L 369 78.323892 
L 396.9 224.75513 
L 424.8 252.395739 
L 452.7 251.017429 
L 480.6 258.019901 
L 508.5 259.739884 
L 536.4 254.83188 
L 564.3 251.470379 
L 592.2 261.556364 
L 620.1 229.481906 
" style="fill:none;stroke:#0000ff;stroke-linecap:square;stroke-width:1.5;"/>
    <defs>
     <path d="M 0 3 
C 0.795609 3 1.55874 2.683901 2.12132 2.12132 
C 2.683901 1.55874 3 0.795609 3 0 
C 3 -0.795609 2.683901 -1.55874 2.12132 -2.12132 
C 1.55874 -2.683901 0.795609 -3 0 -3 
C -0.795609 -3 -1.55874 -2.683901 -2.12132 -2.12132 
C -2.683901 -1.55874 -3 -0.795609 -3 0 
C -3 0.795609 -2.683901 1.55874 -2.12132 2.12132 
C -1.55874 2.683901 -0.795609 3 0 3 
z
" id="m38c3b76405" style="stroke:#0000ff;"/>
    </defs>
    <g clip-path="url(#pa4ccd2e4bb)">
     <use style="fill:#0000ff;stroke:#0000ff;" x="117.9" xlink:href="#m38c3b76405" y="127.152713"/>
     <use style="fill:#0000ff;stroke:#0000ff;" x="145.8" xlink:href="#m38c3b76405" y="167.231954"/>
     <use style="fill:#0000ff;stroke:#0000ff;" x="173.7" xlink:href="#m38c3b76405" y="159.985063"/>
     <use style="fill:#0000ff;stroke:#0000ff;" x="201.6" xlink:href="#m38c3b76405" y="174.696302"/>
     <use style="fill:#0000ff;stroke:#0000ff;" x="229.5" xlink:href="#m38c3b76405" y="175.516229"/>
     <use style="fill:#0000ff;stroke:#0000ff;" x="257.4" xlink:href="#m38c3b76405" y="174.441631"/>
     <use style="fill:#0000ff;stroke:#0000ff;" x="285.3" xlink:href="#m38c3b76405" y="175.298438"/>
     <use style="fill:#0000ff;stroke:#0000ff;" x="313.2" xlink:href="#m38c3b76405" y="176.044982"/>
     <use style="fill:#0000ff;stroke:#0000ff;" x="341.1" xlink:href="#m38c3b76405" y="155.05086"/>
     <use style="fill:#0000ff;stroke:#0000ff;" x="369" xlink:href="#m38c3b76405" y="78.323892"/>
     <use style="fill:#0000ff;stroke:#0000ff;" x="396.9" xlink:href="#m38c3b76405" y="224.75513"/>
     <use style="fill:#0000ff;stroke:#0000ff;" x="424.8" xlink:href="#m38c3b76405" y="252.395739"/>
     <use style="fill:#0000ff;stroke:#0000ff;" x="452.7" xlink:href="#m38c3b76405" y="251.017429"/>
     <use style="fill:#0000ff;stroke:#0000ff;" x="480.6" xlink:href="#m38c3b76405" y="258.019901"/>
     <use style="fill:#0000ff;stroke:#0000ff;" x="508.5" xlink:href="#m38c3b76405" y="259.739884"/>
     <use style="fill:#0000ff;stroke:#0000ff;" x="536.4" xlink:href="#m38c3b76405" y="254.83188"/>
     <use style="fill:#0000ff;stroke:#0000ff;" x="564.3" xlink:href="#m38c3b76405" y="251.470379"/>
     <use style="fill:#0000ff;stroke:#0000ff;" x="592.2" xlink:href="#m38c3b76405" y="261.556364"/>
     <use style="fill:#0000ff;stroke:#0000ff;" x="620.1" xlink:href="#m38c3b76405" y="229.481906"/>
    </g>
   </g>
   <g id="line2d_37">
    <path clip-path="url(#pa4ccd2e4bb)" d="M 117.9 134.259834 
L 145.8 151.058625 
L 173.7 159.404052 
L 201.6 164.573385 
L 229.5 168.142935 
L 257.4 170.778973 
L 285.3 172.818158 
L 313.2 174.450901 
L 341.1 175.793922 
L 369 78.304064 
L 396.9 248.502888 
L 424.8 248.535642 
L 452.7 248.506247 
L 480.6 248.387676 
L 508.5 248.12805 
L 536.4 247.62658 
L 564.3 246.657981 
L 592.2 244.593239 
L 620.1 238.736042 
" style="fill:none;stroke:#ff0000;stroke-linecap:square;stroke-width:1.5;"/>
    <defs>
     <path d="M 0 3 
C 0.795609 3 1.55874 2.683901 2.12132 2.12132 
C 2.683901 1.55874 3 0.795609 3 0 
C 3 -0.795609 2.683901 -1.55874 2.12132 -2.12132 
C 1.55874 -2.683901 0.795609 -3 0 -3 
C -0.795609 -3 -1.55874 -2.683901 -2.12132 -2.12132 
C -2.683901 -1.55874 -3 -0.795609 -3 0 
C -3 0.795609 -2.683901 1.55874 -2.12132 2.12132 
C -1.55874 2.683901 -0.795609 3 0 3 
z
" id="m5679b0bc8c" style="stroke:#ff0000;"/>
    </defs>
    <g clip-path="url(#pa4ccd2e4bb)">
     <use style="fill:#ff0000;stroke:#ff0000;" x="117.9" xlink:href="#m5679b0bc8c" y="134.259834"/>
     <use style="fill:#ff0000;stroke:#ff0000;" x="145.8" xlink:href="#m5679b0bc8c" y="151.058625"/>
     <use style="fill:#ff0000;stroke:#ff0000;" x="173.7" xlink:href="#m5679b0bc8c" y="159.404052"/>
     <use style="fill:#ff0000;stroke:#ff0000;" x="201.6" xlink:href="#m5679b0bc8c" y="164.573385"/>
     <use style="fill:#ff0000;stroke:#ff0000;" x="229.5" xlink:href="#m5679b0bc8c" y="168.142935"/>
     <use style="fill:#ff0000;stroke:#ff0000;" x="257.4" xlink:href="#m5679b0bc8c" y="170.778973"/>
     <use style="fill:#ff0000;stroke:#ff0000;" x="285.3" xlink:href="#m5679b0bc8c" y="172.818158"/>
     <use style="fill:#ff0000;stroke:#ff0000;" x="313.2" xlink:href="#m5679b0bc8c" y="174.450901"/>
     <use style="fill:#ff0000;stroke:#ff0000;" x="341.1" xlink:href="#m5679b0bc8c" y="175.793922"/>
     <use style="fill:#ff0000;stroke:#ff0000;" x="369" xlink:href="#m5679b0bc8c" y="78.304064"/>
     <use style="fill:#ff0000;stroke:#ff0000;" x="396.9" xlink:href="#m5679b0bc8c" y="248.502888"/>
     <use style="fill:#ff0000;stroke:#ff0000;" x="424.8" xlink:href="#m5679b0bc8c" y="248.535642"/>
     <use style="fill:#ff0000;stroke:#ff0000;" x="452.7" xlink:href="#m5679b0bc8c" y="248.506247"/>
     <use style="fill:#ff0000;stroke:#ff0000;" x="480.6" xlink:href="#m5679b0bc8c" y="248.387676"/>
     <use style="fill:#ff0000;stroke:#ff0000;" x="508.5" xlink:href="#m5679b0bc8c" y="248.12805"/>
     <use style="fill:#ff0000;stroke:#ff0000;" x="536.4" xlink:href="#m5679b0bc8c" y="247.62658"/>
     <use style="fill:#ff0000;stroke:#ff0000;" x="564.3" xlink:href="#m5679b0bc8c" y="246.657981"/>
     <use style="fill:#ff0000;stroke:#ff0000;" x="592.2" xlink:href="#m5679b0bc8c" y="244.593239"/>
     <use style="fill:#ff0000;stroke:#ff0000;" x="620.1" xlink:href="#m5679b0bc8c" y="238.736042"/>
    </g>
   </g>
   <g id="line2d_38">
    <path clip-path="url(#pa4ccd2e4bb)" d="M 117.9 133.338135 
L 145.8 151.304269 
L 173.7 160.474654 
L 201.6 166.213073 
L 229.5 170.124549 
L 257.4 172.848462 
L 285.3 174.596615 
L 313.2 175.144164 
L 341.1 172.681116 
L 369 78.283636 
L 396.9 214.775273 
L 424.8 234.446602 
L 452.7 244.935932 
L 480.6 251.382037 
L 508.5 255.262563 
L 536.4 257.004542 
L 564.3 256.378307 
L 592.2 252.115006 
L 620.1 239.22176 
" style="fill:none;stroke:#008000;stroke-linecap:square;stroke-width:1.5;"/>
    <defs>
     <path d="M 0 3 
C 0.795609 3 1.55874 2.683901 2.12132 2.12132 
C 2.683901 1.55874 3 0.795609 3 0 
C 3 -0.795609 2.683901 -1.55874 2.12132 -2.12132 
C 1.55874 -2.683901 0.795609 -3 0 -3 
C -0.795609 -3 -1.55874 -2.683901 -2.12132 -2.12132 
C -2.683901 -1.55874 -3 -0.795609 -3 0 
C -3 0.795609 -2.683901 1.55874 -2.12132 2.12132 
C -1.55874 2.683901 -0.795609 3 0 3 
z
" id="mdcef9969d6" style="stroke:#008000;"/>
    </defs>
    <g clip-path="url(#pa4ccd2e4bb)">
     <use style="fill:#008000;stroke:#008000;" x="117.9" xlink:href="#mdcef9969d6" y="133.338135"/>
     <use style="fill:#008000;stroke:#008000;" x="145.8" xlink:href="#mdcef9969d6" y="151.304269"/>
     <use style="fill:#008000;stroke:#008000;" x="173.7" xlink:href="#mdcef9969d6" y="160.474654"/>
     <use style="fill:#008000;stroke:#008000;" x="201.6" xlink:href="#mdcef9969d6" y="166.213073"/>
     <use style="fill:#008000;stroke:#008000;" x="229.5" xlink:href="#mdcef9969d6" y="170.124549"/>
     <use style="fill:#008000;stroke:#008000;" x="257.4" xlink:href="#mdcef9969d6" y="172.848462"/>
     <use style="fill:#008000;stroke:#008000;" x="285.3" xlink:href="#mdcef9969d6" y="174.596615"/>
     <use style="fill:#008000;stroke:#008000;" x="313.2" xlink:href="#mdcef9969d6" y="175.144164"/>
     <use style="fill:#008000;stroke:#008000;" x="341.1" xlink:href="#mdcef9969d6" y="172.681116"/>
     <use style="fill:#008000;stroke:#008000;" x="369" xlink:href="#mdcef9969d6" y="78.283636"/>
     <use style="fill:#008000;stroke:#008000;" x="396.9" xlink:href="#mdcef9969d6" y="214.775273"/>
     <use style="fill:#008000;stroke:#008000;" x="424.8" xlink:href="#mdcef9969d6" y="234.446602"/>
     <use style="fill:#008000;stroke:#008000;" x="452.7" xlink:href="#mdcef9969d6" y="244.935932"/>
     <use style="fill:#008000;stroke:#008000;" x="480.6" xlink:href="#mdcef9969d6" y="251.382037"/>
     <use style="fill:#008000;stroke:#008000;" x="508.5" xlink:href="#mdcef9969d6" y="255.262563"/>
     <use style="fill:#008000;stroke:#008000;" x="536.4" xlink:href="#mdcef9969d6" y="257.004542"/>
     <use style="fill:#008000;stroke:#008000;" x="564.3" xlink:href="#mdcef9969d6" y="256.378307"/>
     <use style="fill:#008000;stroke:#008000;" x="592.2" xlink:href="#mdcef9969d6" y="252.115006"/>
     <use style="fill:#008000;stroke:#008000;" x="620.1" xlink:href="#mdcef9969d6" y="239.22176"/>
    </g>
   </g>
   <g id="patch_3">
    <path d="M 90 270.72 
L 90 69.12 
" style="fill:none;stroke:#000000;stroke-linecap:square;stroke-linejoin:miter;stroke-width:0.8;"/>
   </g>
   <g id="patch_4">
    <path d="M 648 270.72 
L 648 69.12 
" style="fill:none;stroke:#000000;stroke-linecap:square;stroke-linejoin:miter;stroke-width:0.8;"/>
   </g>
   <g id="patch_5">
    <path d="M 90 270.72 
L 648 270.72 
" style="fill:none;stroke:#000000;stroke-linecap:square;stroke-linejoin:miter;stroke-width:0.8;"/>
   </g>
   <g id="patch_6">
    <path d="M 90 69.12 
L 648 69.12 
" style="fill:none;stroke:#000000;stroke-linecap:square;stroke-linejoin:miter;stroke-width:0.8;"/>
   </g>
  </g>
  <g id="axes_2">
   <g id="patch_7">
    <path d="M 90 512.64 
L 648 512.64 
L 648 311.04 
L 90 311.04 
z
" style="fill:#ffffff;"/>
   </g>
   <g id="matplotlib.axis_3">
    <g id="xtick_10">
     <g id="line2d_39">
      <g>
       <use style="stroke:#000000;stroke-width:0.8;" x="90" xlink:href="#m85cbfba430" y="512.64"/>
      </g>
     </g>
     <g id="text_13">
      <!-- 0.0 -->
      <g transform="translate(82.048438 527.238438)scale(0.1 -0.1)">
       <use xlink:href="#DejaVuSans-30"/>
       <use x="63.623047" xlink:href="#DejaVuSans-2e"/>
       <use x="95.410156" xlink:href="#DejaVuSans-30"/>
      </g>
     </g>
    </g>
    <g id="xtick_11">
     <g id="line2d_40">
      <g>
       <use style="stroke:#000000;stroke-width:0.8;" x="159.75" xlink:href="#m85cbfba430" y="512.64"/>
      </g>
     </g>
     <g id="text_14">
      <!-- 2.5 -->
      <g transform="translate(151.798438 527.238438)scale(0.1 -0.1)">
       <use xlink:href="#DejaVuSans-32"/>
       <use x="63.623047" xlink:href="#DejaVuSans-2e"/>
       <use x="95.410156" xlink:href="#DejaVuSans-35"/>
      </g>
     </g>
    </g>
    <g id="xtick_12">
     <g id="line2d_41">
      <g>
       <use style="stroke:#000000;stroke-width:0.8;" x="229.5" xlink:href="#m85cbfba430" y="512.64"/>
      </g>
     </g>
     <g id="text_15">
      <!-- 5.0 -->
      <g transform="translate(221.548438 527.238438)scale(0.1 -0.1)">
       <use xlink:href="#DejaVuSans-35"/>
       <use x="63.623047" xlink:href="#DejaVuSans-2e"/>
       <use x="95.410156" xlink:href="#DejaVuSans-30"/>
      </g>
     </g>
    </g>
    <g id="xtick_13">
     <g id="line2d_42">
      <g>
       <use style="stroke:#000000;stroke-width:0.8;" x="299.25" xlink:href="#m85cbfba430" y="512.64"/>
      </g>
     </g>
     <g id="text_16">
      <!-- 7.5 -->
      <g transform="translate(291.298437 527.238438)scale(0.1 -0.1)">
       <use xlink:href="#DejaVuSans-37"/>
       <use x="63.623047" xlink:href="#DejaVuSans-2e"/>
       <use x="95.410156" xlink:href="#DejaVuSans-35"/>
      </g>
     </g>
    </g>
    <g id="xtick_14">
     <g id="line2d_43">
      <g>
       <use style="stroke:#000000;stroke-width:0.8;" x="369" xlink:href="#m85cbfba430" y="512.64"/>
      </g>
     </g>
     <g id="text_17">
      <!-- 10.0 -->
      <g transform="translate(357.867188 527.238438)scale(0.1 -0.1)">
       <use xlink:href="#DejaVuSans-31"/>
       <use x="63.623047" xlink:href="#DejaVuSans-30"/>
       <use x="127.246094" xlink:href="#DejaVuSans-2e"/>
       <use x="159.033203" xlink:href="#DejaVuSans-30"/>
      </g>
     </g>
    </g>
    <g id="xtick_15">
     <g id="line2d_44">
      <g>
       <use style="stroke:#000000;stroke-width:0.8;" x="438.75" xlink:href="#m85cbfba430" y="512.64"/>
      </g>
     </g>
     <g id="text_18">
      <!-- 12.5 -->
      <g transform="translate(427.617188 527.238438)scale(0.1 -0.1)">
       <use xlink:href="#DejaVuSans-31"/>
       <use x="63.623047" xlink:href="#DejaVuSans-32"/>
       <use x="127.246094" xlink:href="#DejaVuSans-2e"/>
       <use x="159.033203" xlink:href="#DejaVuSans-35"/>
      </g>
     </g>
    </g>
    <g id="xtick_16">
     <g id="line2d_45">
      <g>
       <use style="stroke:#000000;stroke-width:0.8;" x="508.5" xlink:href="#m85cbfba430" y="512.64"/>
      </g>
     </g>
     <g id="text_19">
      <!-- 15.0 -->
      <g transform="translate(497.367188 527.238438)scale(0.1 -0.1)">
       <use xlink:href="#DejaVuSans-31"/>
       <use x="63.623047" xlink:href="#DejaVuSans-35"/>
       <use x="127.246094" xlink:href="#DejaVuSans-2e"/>
       <use x="159.033203" xlink:href="#DejaVuSans-30"/>
      </g>
     </g>
    </g>
    <g id="xtick_17">
     <g id="line2d_46">
      <g>
       <use style="stroke:#000000;stroke-width:0.8;" x="578.25" xlink:href="#m85cbfba430" y="512.64"/>
      </g>
     </g>
     <g id="text_20">
      <!-- 17.5 -->
      <g transform="translate(567.117188 527.238438)scale(0.1 -0.1)">
       <use xlink:href="#DejaVuSans-31"/>
       <use x="63.623047" xlink:href="#DejaVuSans-37"/>
       <use x="127.246094" xlink:href="#DejaVuSans-2e"/>
       <use x="159.033203" xlink:href="#DejaVuSans-35"/>
      </g>
     </g>
    </g>
    <g id="xtick_18">
     <g id="line2d_47">
      <g>
       <use style="stroke:#000000;stroke-width:0.8;" x="648" xlink:href="#m85cbfba430" y="512.64"/>
      </g>
     </g>
     <g id="text_21">
      <!-- 20.0 -->
      <g transform="translate(636.867188 527.238438)scale(0.1 -0.1)">
       <use xlink:href="#DejaVuSans-32"/>
       <use x="63.623047" xlink:href="#DejaVuSans-30"/>
       <use x="127.246094" xlink:href="#DejaVuSans-2e"/>
       <use x="159.033203" xlink:href="#DejaVuSans-30"/>
      </g>
     </g>
    </g>
   </g>
   <g id="matplotlib.axis_4">
    <g id="ytick_27">
     <g id="line2d_48">
      <g>
       <use style="stroke:#000000;stroke-width:0.8;" x="90" xlink:href="#mf632bfd439" y="495.59068"/>
      </g>
     </g>
     <g id="text_22">
      <!-- −20 -->
      <defs>
       <path d="M 10.59375 35.5 
L 73.1875 35.5 
L 73.1875 27.203125 
L 10.59375 27.203125 
z
" id="DejaVuSans-2212"/>
      </defs>
      <g transform="translate(61.895313 499.389899)scale(0.1 -0.1)">
       <use xlink:href="#DejaVuSans-2212"/>
       <use x="83.789062" xlink:href="#DejaVuSans-32"/>
       <use x="147.412109" xlink:href="#DejaVuSans-30"/>
      </g>
     </g>
    </g>
    <g id="ytick_28">
     <g id="line2d_49">
      <g>
       <use style="stroke:#000000;stroke-width:0.8;" x="90" xlink:href="#mf632bfd439" y="471.805221"/>
      </g>
     </g>
     <g id="text_23">
      <!-- −15 -->
      <g transform="translate(61.895313 475.60444)scale(0.1 -0.1)">
       <use xlink:href="#DejaVuSans-2212"/>
       <use x="83.789062" xlink:href="#DejaVuSans-31"/>
       <use x="147.412109" xlink:href="#DejaVuSans-35"/>
      </g>
     </g>
    </g>
    <g id="ytick_29">
     <g id="line2d_50">
      <g>
       <use style="stroke:#000000;stroke-width:0.8;" x="90" xlink:href="#mf632bfd439" y="448.019762"/>
      </g>
     </g>
     <g id="text_24">
      <!-- −10 -->
      <g transform="translate(61.895313 451.818981)scale(0.1 -0.1)">
       <use xlink:href="#DejaVuSans-2212"/>
       <use x="83.789062" xlink:href="#DejaVuSans-31"/>
       <use x="147.412109" xlink:href="#DejaVuSans-30"/>
      </g>
     </g>
    </g>
    <g id="ytick_30">
     <g id="line2d_51">
      <g>
       <use style="stroke:#000000;stroke-width:0.8;" x="90" xlink:href="#mf632bfd439" y="424.234303"/>
      </g>
     </g>
     <g id="text_25">
      <!-- −5 -->
      <g transform="translate(68.257812 428.033521)scale(0.1 -0.1)">
       <use xlink:href="#DejaVuSans-2212"/>
       <use x="83.789062" xlink:href="#DejaVuSans-35"/>
      </g>
     </g>
    </g>
    <g id="ytick_31">
     <g id="line2d_52">
      <g>
       <use style="stroke:#000000;stroke-width:0.8;" x="90" xlink:href="#mf632bfd439" y="400.448844"/>
      </g>
     </g>
     <g id="text_26">
      <!-- 0 -->
      <g transform="translate(76.6375 404.248062)scale(0.1 -0.1)">
       <use xlink:href="#DejaVuSans-30"/>
      </g>
     </g>
    </g>
    <g id="ytick_32">
     <g id="line2d_53">
      <g>
       <use style="stroke:#000000;stroke-width:0.8;" x="90" xlink:href="#mf632bfd439" y="376.663385"/>
      </g>
     </g>
     <g id="text_27">
      <!-- 5 -->
      <g transform="translate(76.6375 380.462603)scale(0.1 -0.1)">
       <use xlink:href="#DejaVuSans-35"/>
      </g>
     </g>
    </g>
    <g id="ytick_33">
     <g id="line2d_54">
      <g>
       <use style="stroke:#000000;stroke-width:0.8;" x="90" xlink:href="#mf632bfd439" y="352.877925"/>
      </g>
     </g>
     <g id="text_28">
      <!-- 10 -->
      <g transform="translate(70.275 356.677144)scale(0.1 -0.1)">
       <use xlink:href="#DejaVuSans-31"/>
       <use x="63.623047" xlink:href="#DejaVuSans-30"/>
      </g>
     </g>
    </g>
    <g id="ytick_34">
     <g id="line2d_55">
      <g>
       <use style="stroke:#000000;stroke-width:0.8;" x="90" xlink:href="#mf632bfd439" y="329.092466"/>
      </g>
     </g>
     <g id="text_29">
      <!-- 15 -->
      <g transform="translate(70.275 332.891685)scale(0.1 -0.1)">
       <use xlink:href="#DejaVuSans-31"/>
       <use x="63.623047" xlink:href="#DejaVuSans-35"/>
      </g>
     </g>
    </g>
   </g>
   <g id="line2d_56">
    <path clip-path="url(#p96eaf2e964)" d="M 117.9 458.310104 
L 145.8 320.203636 
L 173.7 397.487118 
L 201.6 357.183279 
L 229.5 369.794762 
L 257.4 385.27059 
L 285.3 390.368294 
L 313.2 394.073831 
L 341.1 503.476364 
L 369 400.093287 
L 396.9 440.151958 
L 424.8 395.639497 
L 452.7 397.275479 
L 480.6 389.097943 
L 508.5 386.977015 
L 536.4 391.647006 
L 564.3 394.336163 
L 592.2 380.725853 
L 620.1 415.814954 
" style="fill:none;stroke:#00bfbf;stroke-linecap:square;stroke-width:1.5;"/>
    <defs>
     <path d="M 0 3 
C 0.795609 3 1.55874 2.683901 2.12132 2.12132 
C 2.683901 1.55874 3 0.795609 3 0 
C 3 -0.795609 2.683901 -1.55874 2.12132 -2.12132 
C 1.55874 -2.683901 0.795609 -3 0 -3 
C -0.795609 -3 -1.55874 -2.683901 -2.12132 -2.12132 
C -2.683901 -1.55874 -3 -0.795609 -3 0 
C -3 0.795609 -2.683901 1.55874 -2.12132 2.12132 
C -1.55874 2.683901 -0.795609 3 0 3 
z
" id="m532b2cfcc0" style="stroke:#00bfbf;"/>
    </defs>
    <g clip-path="url(#p96eaf2e964)">
     <use style="fill:#00bfbf;stroke:#00bfbf;" x="117.9" xlink:href="#m532b2cfcc0" y="458.310104"/>
     <use style="fill:#00bfbf;stroke:#00bfbf;" x="145.8" xlink:href="#m532b2cfcc0" y="320.203636"/>
     <use style="fill:#00bfbf;stroke:#00bfbf;" x="173.7" xlink:href="#m532b2cfcc0" y="397.487118"/>
     <use style="fill:#00bfbf;stroke:#00bfbf;" x="201.6" xlink:href="#m532b2cfcc0" y="357.183279"/>
     <use style="fill:#00bfbf;stroke:#00bfbf;" x="229.5" xlink:href="#m532b2cfcc0" y="369.794762"/>
     <use style="fill:#00bfbf;stroke:#00bfbf;" x="257.4" xlink:href="#m532b2cfcc0" y="385.27059"/>
     <use style="fill:#00bfbf;stroke:#00bfbf;" x="285.3" xlink:href="#m532b2cfcc0" y="390.368294"/>
     <use style="fill:#00bfbf;stroke:#00bfbf;" x="313.2" xlink:href="#m532b2cfcc0" y="394.073831"/>
     <use style="fill:#00bfbf;stroke:#00bfbf;" x="341.1" xlink:href="#m532b2cfcc0" y="503.476364"/>
     <use style="fill:#00bfbf;stroke:#00bfbf;" x="369" xlink:href="#m532b2cfcc0" y="400.093287"/>
     <use style="fill:#00bfbf;stroke:#00bfbf;" x="396.9" xlink:href="#m532b2cfcc0" y="440.151958"/>
     <use style="fill:#00bfbf;stroke:#00bfbf;" x="424.8" xlink:href="#m532b2cfcc0" y="395.639497"/>
     <use style="fill:#00bfbf;stroke:#00bfbf;" x="452.7" xlink:href="#m532b2cfcc0" y="397.275479"/>
     <use style="fill:#00bfbf;stroke:#00bfbf;" x="480.6" xlink:href="#m532b2cfcc0" y="389.097943"/>
     <use style="fill:#00bfbf;stroke:#00bfbf;" x="508.5" xlink:href="#m532b2cfcc0" y="386.977015"/>
     <use style="fill:#00bfbf;stroke:#00bfbf;" x="536.4" xlink:href="#m532b2cfcc0" y="391.647006"/>
     <use style="fill:#00bfbf;stroke:#00bfbf;" x="564.3" xlink:href="#m532b2cfcc0" y="394.336163"/>
     <use style="fill:#00bfbf;stroke:#00bfbf;" x="592.2" xlink:href="#m532b2cfcc0" y="380.725853"/>
     <use style="fill:#00bfbf;stroke:#00bfbf;" x="620.1" xlink:href="#m532b2cfcc0" y="415.814954"/>
    </g>
   </g>
   <g id="line2d_57">
    <path clip-path="url(#p96eaf2e964)" d="M 117.9 451.034744 
L 145.8 321.533211 
L 173.7 402.930839 
L 201.6 364.5153 
L 229.5 378.270509 
L 257.4 393.917847 
L 285.3 397.622706 
L 313.2 396.85925 
L 341.1 489.242424 
L 369 399.726905 
L 396.9 380.766793 
L 424.8 376.277054 
L 452.7 392.617257 
L 480.6 392.752519 
L 508.5 395.451242 
L 536.4 402.976071 
L 564.3 406.379479 
L 592.2 389.924043 
L 620.1 416.583773 
" style="fill:none;stroke:#bf00bf;stroke-linecap:square;stroke-width:1.5;"/>
    <defs>
     <path d="M 0 3 
C 0.795609 3 1.55874 2.683901 2.12132 2.12132 
C 2.683901 1.55874 3 0.795609 3 0 
C 3 -0.795609 2.683901 -1.55874 2.12132 -2.12132 
C 1.55874 -2.683901 0.795609 -3 0 -3 
C -0.795609 -3 -1.55874 -2.683901 -2.12132 -2.12132 
C -2.683901 -1.55874 -3 -0.795609 -3 0 
C -3 0.795609 -2.683901 1.55874 -2.12132 2.12132 
C -1.55874 2.683901 -0.795609 3 0 3 
z
" id="m64aade3e1b" style="stroke:#bf00bf;"/>
    </defs>
    <g clip-path="url(#p96eaf2e964)">
     <use style="fill:#bf00bf;stroke:#bf00bf;" x="117.9" xlink:href="#m64aade3e1b" y="451.034744"/>
     <use style="fill:#bf00bf;stroke:#bf00bf;" x="145.8" xlink:href="#m64aade3e1b" y="321.533211"/>
     <use style="fill:#bf00bf;stroke:#bf00bf;" x="173.7" xlink:href="#m64aade3e1b" y="402.930839"/>
     <use style="fill:#bf00bf;stroke:#bf00bf;" x="201.6" xlink:href="#m64aade3e1b" y="364.5153"/>
     <use style="fill:#bf00bf;stroke:#bf00bf;" x="229.5" xlink:href="#m64aade3e1b" y="378.270509"/>
     <use style="fill:#bf00bf;stroke:#bf00bf;" x="257.4" xlink:href="#m64aade3e1b" y="393.917847"/>
     <use style="fill:#bf00bf;stroke:#bf00bf;" x="285.3" xlink:href="#m64aade3e1b" y="397.622706"/>
     <use style="fill:#bf00bf;stroke:#bf00bf;" x="313.2" xlink:href="#m64aade3e1b" y="396.85925"/>
     <use style="fill:#bf00bf;stroke:#bf00bf;" x="341.1" xlink:href="#m64aade3e1b" y="489.242424"/>
     <use style="fill:#bf00bf;stroke:#bf00bf;" x="369" xlink:href="#m64aade3e1b" y="399.726905"/>
     <use style="fill:#bf00bf;stroke:#bf00bf;" x="396.9" xlink:href="#m64aade3e1b" y="380.766793"/>
     <use style="fill:#bf00bf;stroke:#bf00bf;" x="424.8" xlink:href="#m64aade3e1b" y="376.277054"/>
     <use style="fill:#bf00bf;stroke:#bf00bf;" x="452.7" xlink:href="#m64aade3e1b" y="392.617257"/>
     <use style="fill:#bf00bf;stroke:#bf00bf;" x="480.6" xlink:href="#m64aade3e1b" y="392.752519"/>
     <use style="fill:#bf00bf;stroke:#bf00bf;" x="508.5" xlink:href="#m64aade3e1b" y="395.451242"/>
     <use style="fill:#bf00bf;stroke:#bf00bf;" x="536.4" xlink:href="#m64aade3e1b" y="402.976071"/>
     <use style="fill:#bf00bf;stroke:#bf00bf;" x="564.3" xlink:href="#m64aade3e1b" y="406.379479"/>
     <use style="fill:#bf00bf;stroke:#bf00bf;" x="592.2" xlink:href="#m64aade3e1b" y="389.924043"/>
     <use style="fill:#bf00bf;stroke:#bf00bf;" x="620.1" xlink:href="#m64aade3e1b" y="416.583773"/>
    </g>
   </g>
   <g id="patch_8">
    <path d="M 90 512.64 
L 90 311.04 
" style="fill:none;stroke:#000000;stroke-linecap:square;stroke-linejoin:miter;stroke-width:0.8;"/>
   </g>
   <g id="patch_9">
    <path d="M 648 512.64 
L 648 311.04 
" style="fill:none;stroke:#000000;stroke-linecap:square;stroke-linejoin:miter;stroke-width:0.8;"/>
   </g>
   <g id="patch_10">
    <path d="M 90 512.64 
L 648 512.64 
" style="fill:none;stroke:#000000;stroke-linecap:square;stroke-linejoin:miter;stroke-width:0.8;"/>
   </g>
   <g id="patch_11">
    <path d="M 90 311.04 
L 648 311.04 
" style="fill:none;stroke:#000000;stroke-linecap:square;stroke-linejoin:miter;stroke-width:0.8;"/>
   </g>
  </g>
 </g>
 <defs>
  <clipPath id="pa4ccd2e4bb">
   <rect height="201.6" width="558" x="90" y="69.12"/>
  </clipPath>
  <clipPath id="p96eaf2e964">
   <rect height="201.6" width="558" x="90" y="311.04"/>
  </clipPath>
 </defs>
</svg>
